<?xml version="1.0" encoding="UTF-8"?>
<svg id="Layer_1" xmlns="http://www.w3.org/2000/svg" version="1.1" viewBox="0 0 500 500">
  <!-- Generator: Adobe Illustrator 29.1.0, SVG Export Plug-In . SVG Version: 2.1.0 Build 142)  -->
  <path d="M256.89,18.68c56.69,15.87,112.68,52.57,156.79,91.9,21.08,18.8,42.44,40.47,57.78,64.39,1.89,2.95,6.79,9.85,7.57,12.88.56,2.19.72,8.26.83,10.94.4,10.05.25,21.31-1.05,30.7-.71,5.13-.24,11.87-1.02,15.86-.22,1.14-1.3,1.44-1.52,2.57-.84,4.33-1.41,11.55-2.08,16.33-.26,1.88.46,4.96.04,6.58-.14.54-1.24.49-1.47,1.18-.46,1.36-.31,5.52-.71,7.49-5.43,26.98-14.81,53.83-24.75,79.57-12.23,31.67-29.96,67.39-51.95,92.73-1.36,1.57-3.17,4.93-4.97,6.3-2.36,1.8-15.9,7.1-19.35,8.25-8.6,2.89-19.94,5.48-28.95,7.34-12.45,2.57-24.96,3.52-37.8,5.13-.98.12-.49.99-1.46,1.1-33.7,4.1-67.49,1.75-101.22.47-3.76-2.95-9.27-.54-13.18-1.53-.56-.14-.35-1.32-1.62-1.56-2.94-.56-8.09.09-11.25-.5-1.12-.21-1.43-1.3-2.57-1.52-4.31-.83-11.57-1.07-15.71-2.17-6.81-1.82-13.28-3.77-20.2-5.87-6.52-1.97-15.39-4.38-21.39-7.5-.29-.15-.37-1.03-1.02-1.26-5.08-1.78-7.01-1.26-10.9-6.13-11.68-14.64-20.96-30.63-29.78-47.28-20.34-38.42-34.28-78.56-44.3-120.88-3.73-15.76-5.23-31.54-7.21-47.52-1.74-14.01-1.87-33.01.05-47.05.22-1.63-.46-3.71-.26-4.95.3-1.8,4.3-6.36,5.32-8,1.48-2.36,3.41-7.06,5.34-8.62,2.14-1.73.69-.88,1.81-2.91.28-.5,2.24-1.79,2.75-2.47,3.49-4.63,6.82-9.07,10.56-13.51,15.63-18.55,34.51-36.16,53.82-51.72,30.38-24.49,65.64-48.32,102.01-63.88,8.37-3.58,17.09-7.53,25.65-10.13,5.68-1.72,11.36-2.54,17-3.95,5.19-1.3,4.56-2.45,10.35-.83ZM260.37,25.59c-11.33-4.86-40.19,8.07-51.05,12.56-11.46,4.73-22.25,9.61-32.99,15.55-7.02,3.89-14.51,8.26-21.43,12.67-9.97,6.35-20.13,12.8-29.68,19.87-8.49,6.28-17.4,12.89-25.14,19.3-8.19,6.79-17.61,15.98-24.44,22.49-10.14,9.67-19.56,20.09-27.71,31.13-.4.54-1.8.76-2.24,1.29-3.26,3.97-6.75,9.89-9.74,14.15-1.31,1.86-5.89,7.19-6.33,8.9s.08,3.39-.23,4.76c-2.67,11.74-1.43,25.83-1.19,38.39.18,9.31.83,15.11,2.7,23.41.74,3.26-.1,8.19,1.06,11.39,1.57,4.34,1.84,10.7,3.02,15.67.1.42.88.37.96.73.49,2.17.03,7.32.59,8.94.24.69,1.32.65,1.45,1.17.42,1.69.02,5.44.48,7.38.14.57,1.31.35,1.54,1.6,1.06,5.88.81,7.22,2.96,12.79,1.91,4.93,2.33,9.84,4.13,14.87,2.67,7.45,4.84,15.61,7.98,23.01,2.58,6.07,4.64,12.65,7.15,18.91,7.6,18.93,16.54,36.28,26.85,54.05,6.3,10.85,12.59,18.07,20.39,27.8.41.51.25,1.49.63,2.01,2.04,2.79,3.99,1.69,6.47,2.74,4.74,2.01,9.95,4.49,14.92,6.3,2.63.96,6.33,1.25,8.59,2.01.71.24.63,1.31,1.17,1.45,4.3,1.05,9.4,1.5,13.89,2.56.4.09.41.81.79.92,2.8.83,5.8.03,7.83.54.56.14.34,1.3,1.6,1.54,1.47.28,3.56-.34,4.97,0,.38.09.31.9.69.99,4.28.97,8.71.57,12.66,1.99,1.84.66,4.96,1.17,6.52,1.54,2.94.7,8.09-.9,10.91.52,3.75,1.88,7.71.73,12.23.99,7.32.42,17.61.16,24.23.99.97.12.48.97,1.45,1.09,2.31.29,17.93.44,19.6-.07,4.93-1.5,8.4-.8,13.75-.96,7.58-.23,16.17-.05,23.73-.99.97-.12.49-.98,1.44-1.09,4.42-.52,7.04-.48,11.23-1.46,2.46-.58,5.35.52,8.35-.56,5.79-2.08,15.68-1.93,22.24-3.51,8.45-2.04,17.78-4.89,26.36-7.04,1.56-.39,3.94-.62,5.46-1.1.68-.22.59-1.25,1.18-1.44,2.78-.89,6.88-1.34,9.83-2.57,3.35-1.4,4.98-3.79,7.16-6.32,16.04-18.59,30.6-42.49,40.71-64.46,4.56-9.9,8.49-22.13,13.3-31.23,1.77-3.34,2.5-8.03,3.85-11.71.85-2.32,1.65-4.77,2.64-7.06,3.05-7,4.5-15.94,7.25-23.03.67-1.73,2.81-6.92,3.18-8.53.26-1.18-.3-2.76.09-3.88.24-.69,1.32-.65,1.45-1.17.42-1.69.02-5.44.48-7.38.14-.57,1.3-.34,1.54-1.6.48-2.54-.16-7.44.48-10.02.13-.52,1.21-.48,1.45-1.17.52-1.5-.28-4.23.09-5.9.08-.37.81-.4.95-.75.83-2.02.44-7.34,1.07-9.85.08-.3,1.19-.61,1.43-2.69.94-8.05,1.66-16.01,2.61-24.16.11-.98.85-1.79,1-3.04,1.04-8.96-1.03-18.3.98-26.88.22-.92.19-5.42.05-6.51-.12-.97-.97-.48-1.09-1.45-.69-5.5,1-4.77-1.94-10.28-2.21-4.14-4.72-8.64-7.42-12.69-5.28-7.93-11.6-15.48-17.66-22.99-.31-.38-1.22-2.55-1.33-2.65-.63-.63-1.77-.35-2.29-.78-1.14-.97-2.11-3.43-2.83-4.75-.51-.94-2.38-1.54-2.68-1.86-6.23-6.64-12.84-13.38-19.33-19.65-7.81-7.55-15.17-12.87-23.42-20.41-.9-.83-1.67-1.88-1.92-2.09-.48-.41-1.92-.27-2.75-.79-.95-.59-2.76-3.24-3.9-4.17-8.14-6.62-17.82-13.09-26.38-18.9-11.62-7.89-23.61-15.22-36.09-21.23-.65-.31-1.56-2.03-2.33-2.46-1.45-.81-3.08-.67-4.24-1.08-.21-.08-2.22-2.16-2.81-2.46-8.34-4.28-16.66-7.45-24.94-11.2-5.73-2.6-12.61-5.99-18.43-7.51-3.67-.96-6-.88-9.37-2.56-.29-.14-.32-.81-.47-.88Z" fill="#efb848"/>
  <path d="M257.38.97c61.03,17.09,121.3,56.59,168.78,98.94,22.69,20.24,45.69,43.56,62.2,69.32,2.04,3.18,7.31,10.61,8.15,13.87.61,2.36.78,8.9.89,11.77.43,10.82.27,22.94-1.13,33.05-.76,5.52-.26,12.78-1.1,17.07-.24,1.22-1.4,1.55-1.63,2.77-.91,4.66-1.52,12.43-2.24,17.58-.28,2.03.49,5.34.04,7.08-.15.58-1.33.53-1.58,1.27-.49,1.46-.34,5.94-.76,8.06-5.84,29.04-15.95,57.95-26.65,85.66-13.16,34.09-32.25,72.54-55.93,99.83-1.47,1.69-3.41,5.3-5.35,6.78-2.54,1.93-17.12,7.64-20.83,8.88-9.26,3.11-21.47,5.9-31.16,7.9-13.4,2.77-26.87,3.79-40.69,5.52-1.05.13-.53,1.06-1.58,1.19-36.28,4.41-72.65,1.88-108.97.51-4.05-3.18-9.98-.58-14.18-1.64-.61-.15-.37-1.42-1.74-1.68-3.17-.6-8.71.1-12.11-.54-1.21-.23-1.54-1.4-2.76-1.64-4.64-.9-12.45-1.15-16.92-2.34-7.33-1.96-14.29-4.06-21.75-6.32-7.02-2.12-16.57-4.71-23.03-8.07-.32-.17-.4-1.11-1.1-1.35-5.47-1.92-7.55-1.36-11.73-6.6-12.57-15.76-22.57-32.97-32.06-50.9-21.9-41.36-36.91-84.57-47.69-130.13-4.01-16.96-5.63-33.95-7.76-51.15-1.87-15.09-2.01-35.53.05-50.65.24-1.76-.5-3.99-.28-5.33.33-1.94,4.63-6.85,5.73-8.61,1.59-2.55,3.67-7.6,5.75-9.28,2.3-1.86.75-.95,1.95-3.13.3-.54,2.41-1.92,2.96-2.65,3.76-4.98,7.34-9.76,11.37-14.54,16.83-19.97,37.15-38.92,57.94-55.68,32.71-26.36,70.66-52.02,109.81-68.76,9.01-3.85,18.39-8.1,27.62-10.9,6.12-1.86,12.23-2.73,18.3-4.26,5.58-1.4,4.91-2.63,11.14-.89ZM261.12,8.42c-12.2-5.23-43.27,8.69-54.96,13.52-12.34,5.09-23.95,10.34-35.52,16.74-7.56,4.19-15.63,8.89-23.08,13.64-10.73,6.84-21.67,13.78-31.96,21.39-9.14,6.76-18.74,13.87-27.07,20.78-8.82,7.31-18.96,17.2-26.31,24.21-10.92,10.41-21.06,21.63-29.83,33.51-.43.58-1.94.82-2.41,1.39-3.51,4.28-7.26,10.64-10.48,15.23-1.41,2-6.34,7.74-6.81,9.58s.09,3.65-.25,5.12c-2.87,12.64-1.54,27.81-1.28,41.33.19,10.03.9,16.27,2.91,25.2.79,3.51-.11,8.81,1.14,12.26,1.69,4.67,1.98,11.51,3.26,16.86.11.45.95.4,1.03.79.52,2.33.03,7.88.64,9.62.26.74,1.43.7,1.56,1.26.45,1.82.02,5.86.52,7.94.15.61,1.41.38,1.66,1.72,1.14,6.33.87,7.77,3.19,13.77,2.05,5.3,2.51,10.59,4.44,16.01,2.87,8.02,5.21,16.8,8.59,24.77,2.78,6.54,4.99,13.62,7.7,20.36,8.18,20.38,17.8,39.06,28.91,58.19,6.78,11.68,13.56,19.45,21.95,29.93.44.55.27,1.6.68,2.17,2.19,3.01,4.3,1.82,6.97,2.94,5.11,2.16,10.72,4.83,16.07,6.78,2.83,1.03,6.81,1.35,9.24,2.17.76.26.68,1.41,1.26,1.56,4.63,1.13,10.12,1.61,14.95,2.76.43.1.45.87.85.99,3.01.89,6.25.03,8.43.58.6.15.37,1.4,1.72,1.66,1.58.3,3.83-.37,5.35,0,.41.1.33.97.74,1.07,4.61,1.05,9.38.61,13.63,2.14,1.98.71,5.34,1.26,7.02,1.66,3.16.76,8.71-.96,11.74.56,4.04,2.03,8.3.78,13.16,1.06,7.88.45,18.96.17,26.09,1.07,1.04.13.52,1.04,1.56,1.17,2.49.31,19.31.47,21.1-.07,5.3-1.61,9.05-.86,14.81-1.04,8.16-.25,17.41-.05,25.54-1.07,1.04-.13.52-1.05,1.55-1.17,4.76-.56,7.58-.51,12.09-1.57,2.65-.62,5.76.56,8.99-.6,6.23-2.23,16.88-2.07,23.94-3.78,9.1-2.2,19.14-5.26,28.38-7.57,1.68-.42,4.24-.67,5.88-1.19.73-.23.63-1.35,1.27-1.55,2.99-.96,7.41-1.45,10.58-2.77,3.6-1.5,5.36-4.08,7.71-6.8,17.27-20.01,32.94-45.74,43.82-69.39,4.9-10.66,9.14-23.82,14.32-33.61,1.9-3.6,2.69-8.65,4.15-12.61.92-2.49,1.77-5.14,2.85-7.6,3.28-7.54,4.84-17.16,7.8-24.79.72-1.86,3.03-7.45,3.42-9.19.29-1.27-.32-2.97.1-4.18.26-.74,1.43-.7,1.56-1.26.45-1.82.02-5.86.52-7.94.15-.61,1.4-.37,1.65-1.72.52-2.74-.17-8.01.51-10.79.14-.56,1.3-.51,1.56-1.26.56-1.61-.31-4.56.1-6.35.09-.4.87-.43,1.02-.81.9-2.18.47-7.9,1.15-10.61.08-.33,1.28-.66,1.54-2.89,1.01-8.67,1.79-17.23,2.81-26.01.12-1.06.92-1.93,1.07-3.28,1.12-9.65-1.11-19.7,1.06-28.94.23-.99.2-5.83.05-7-.13-1.04-1.04-.52-1.17-1.56-.75-5.92,1.08-5.13-2.09-11.07-2.38-4.46-5.08-9.31-7.98-13.67-5.69-8.53-12.49-16.66-19.01-24.75-.33-.41-1.31-2.74-1.43-2.85-.68-.67-1.91-.37-2.46-.84-1.23-1.04-2.27-3.7-3.04-5.12-.55-1.01-2.56-1.66-2.88-2-6.71-7.14-13.82-14.4-20.81-21.15-8.41-8.13-16.33-13.85-25.22-21.97-.97-.89-1.8-2.02-2.07-2.25-.52-.44-2.07-.3-2.97-.85-1.03-.64-2.97-3.49-4.2-4.49-8.77-7.12-19.18-14.09-28.4-20.34-12.51-8.49-25.42-16.38-38.85-22.85-.69-.33-1.68-2.19-2.5-2.65-1.56-.87-3.32-.72-4.56-1.16-.23-.08-2.39-2.32-3.03-2.65-8.98-4.61-17.94-8.02-26.85-12.05-6.17-2.8-13.57-6.45-19.84-8.08-3.95-1.03-6.45-.95-10.08-2.75-.31-.15-.34-.87-.5-.94Z" fill="#efb848"/>
  <path d="M348.29,134.05l1.98-.29,10.38-6.69c1.34,1.15,4.12,2.11,4.1,4.21-.02,2.58-6.35,9.68-6.36,12.87.52.48,4.91-2.13,5.69-2.65.66-.44.84-1.11,1.25-1.39,3.97-2.67,5.52-5.58,9.2-.51l-20.91,13.13-2.58-2.51-.14-1.13,6.98-14.52-2,.27-12.48,7.73c-.78.11-3.46-2.43-3.59-3.3l11.52-20.87c7.9,3.67-2.72,10.34-3.03,15.65Z" fill="#efb848"/>
  <path d="M284.07,86.23c.13.06.1.71.5.83,3.86,1.08,9.71.28,10.71,5.86.86,4.84-3.24,5.34-3.53,7.05,2.8,3.19,3.34,6.49.25,9.82-2.01,2.16-11.55.67-14.55-.02-1.38-.32-2.52-1.51-4.34-.96l5.09-23.19c.23-.19,5.48.45,5.88.63ZM291.14,95.55c1.63-4.03-6.92-5.39-9.43-5.41l-1.04,6.03c3.12-.43,5.08,1.65,8.35,1.01.32-.06,2.07-1.51,2.12-1.64ZM288.45,102.02c-2.36-2.51-6.01-2.16-9.29-2.32l-.96,5.77c.27,1.06,4.44,1.05,5.63,1.34.42.1.37.87.73.96,2.72.67,6.07-1.84,5.11-4.71-.19-.56-.87-.66-1.22-1.03Z" fill="#efb848"/>
  <path d="M123.25,198.7l-1.5,4.8-15.65,4.29.22,1.54c.53.71,4.64.87,5.86,1.2.94.25,1.6.91,2.39,1.14,2.96.88,6.72-.02,2.77,4.62l-21.78-5.53.56-4.89,16.55-4.15c2.18-2.25-7.05-2.89-7.69-3.07-.42-.12-.35-.8-.77-.93-1.54-.5-3.52-.39-5.17-1.56l1.01-4.03,23.21,6.57Z" fill="#efb848"/>
  <path d="M318.37,97.85c.2.11,3.12,3.02,3.18,3.24,1.5,5.66-2.75,10.6-8.58,9.23-.15,1.15,1.01,1.4,1.38,2.4,1.09,2.95.15,6.7,1.64,9.72-.78.48-5.24-1.3-5.47-1.58-.32-.38-.43-6.89-.71-8.13-.06-.25-1.37-3.67-1.52-3.81-.19-.19-.88-.03-1.19-.26-.75-.56-.69-1.95-2.67-1.33l-3.6,8.52-4.5-1.49,9.85-21.71c3.35,1.51,6.7,2.99,9.98,4.66.69.35,1.59.21,2.22.55ZM311.78,98.88c-1.21-.45-2.56-.67-3.86-.7.47,1.94-2.7,4.06-1.45,6,.13.2,3.85,1.79,4.35,1.95,1.73.54,5.7,1.39,6.17-1.13.94-5.05-1.36-4.03-4.65-5.35-.33-.13-.42-.72-.57-.78Z" fill="#efb848"/>
  <path d="M157.56,131.52l4.07.22,8.03,2.81-4.32,3.06c-2.96-.71-11.59-3.55-13.85-1.3-1.79,1.78.49,2.42.85,2.94,1.51,2.19,3.18,3.92,4.7,6.17l-3.77,2.27-15.39-17.93c5.32-3.05,13.68-15.41,19.66-7.06,2.81,3.91.8,4.85,0,8.83ZM153.4,124.59c-.63-.3-2.82-.28-3.55-.11-.37.08-2.54,2.44-2.92,2.72-1.3.94-3.57.33-2.8,3.35.24.93,1.03.96,1.51,1.55.76.92.05,1.99,2.61,1.99,3.32,0,4.43-3.46,6.65-5.21.83-1.27-.41-3.77-1.49-4.29Z" fill="#efb848"/>
  <path d="M177.74,108.79c-1.29-.01-2.42,1.73-3.4,1.94-1.2.25-2.29-.83-3.45-.89-3.84-.2-7.99,5.32-2.99,5.58,3.17.16,8.06-2.45,10.56-2.04,1.81.3,4.92,2.13,5.71,3.9,3.22,7.26-5.22,11.91-11.08,13.17l-5.87-3.01c-.65-2.58,2.77-2.29,2.97-3.97,2.35,3.09,8.93,2.2,9.97-1.38,1.52-5.22-5.72-3.33-8.6-2.63-.41.1-.37.88-.73.96-.75.18-4.58.17-5.35,0-.37-.08-.37-.78-.75-.96-1.24-.6-2.3-.23-2.85-2.07-.8-2.67-.62-5.31,1.05-7.5.47-.61,3.86-3.43,4.45-3.65,3.18-1.19,8.73-.96,10.36,2.57Z" fill="#efb848"/>
  <path d="M258.47,90.1c-1.37-.21-3.94.43-5.05-.24-.97-.59-.64-2.49-1.36-2.8-1.29-.54-6.2-.66-6.99.48-.31.46-.43,2.67-.14,2.99.11.12,2.67,1.42,2.82,1.47,1.62.51,4,.32,5.69.86,2.88.92,6.59,4.83,6.02,8.06-1.64,9.23-20.69,8.87-19.1-1.68,4.83-.94,3.35.75,5.48,2.75,2.8,2.62,10.17,1.2,8.35-2.78-1.19-2.62-5.07-2.13-7.35-2.76-3.46-.96-7.57-4.5-6.42-8.51.98-3.41,4.74-4.2,7.61-4.6.4-.06.83-.65,1.2-.7.64-.09,1.08.65,1.52.7,4.83.53,6.87,1.39,7.72,6.76Z" fill="#efb848"/>
  <path d="M132.14,142.95c-.84,1.01-4.79,5.23-4.88,6.02-.23,2.13,2.28,1.55,2.83,3.29.82.09,3.12-1.67,3.72-2.33.55-.6.6-1.46,1.04-1.99,1.16-1.39,3.09-2.27,3.05-4.28.65-.66,2.99,1.67,3.03,1.85.83,3.52-12.15,9.47-2.07,13.6l.54-.03c.92-1.19,2.43-2.41,3.33-3.49,2.16-2.6,4.12-8.47,7.7-4.11-.86.89-1.25,2.05-1.96,3.03-2.16,3.01-5.85,7.18-8.55,9.65-.34.31-.55.74-.54,1.21l-18.66-14.9c1.92-.46,1.5-2.28,2.17-3.13.45-.57,2.26-1.74,2.86-2.55l5.62-7.66,3.38,2.23-2.62,3.6Z" fill="#efb848"/>
  <path d="M108.48,221.08c1.48.69,1.1.44,2.86.89,4.76,1.21,6.06,3.83,5.85,8.79-.63,14.71-15.11,7.93-24.75,8.63-.77-.54-.9-4.35.35-4.76,2.32.11,5.31-.41,7.52-.1,1.18.17,1.8.9,2.97,1.06,6.24.87,10.69,0,9.36-7.35-.56-3.08-8.59-2.01-10.87-2.24-1.07-.11-1.65-.85-2.49-.95-1.02-.12-5.61.12-5.82-.09v-4.55s15,.67,15,.67Z" fill="#efb848"/>
  <path d="M341.68,110.87l-5,24.69-3.95-2.35c-.59-1.53.48-3.18.45-4.49-.06-3.11-6.1-4.13-7.85-6.27l-4.12,3.55-5.22-2.57c-.06-.91,1.16-.31,2.01-.78,1.66-.91,5-4.35,6.58-5.52,3.59-2.64,7.44-4.99,10.96-7.73,2.28-1.3,4.11.63,6.13,1.46ZM336.18,114.35l-5.47,3.36-2.09,2.69c2.58.33,3.51,2.96,6.05,3.04l1.51-9.09Z" fill="#efb848"/>
  <path d="M224.57,85.65l13.22,21.62-4.25,1.05c-.31-.04-2.25-3.83-3.33-4.33-3.12-1.42-6.45,1.12-9.53.8l-.62,5.44-4.98.58,4.61-23.93c.32-1,3.75-1.3,4.88-1.24ZM224.61,92.19l-1.96-.06c.54,3.38-2.07,5.8-1.51,9.09l7.06-1.52c-.92-2.75-3.55-4.31-3.59-7.51Z" fill="#efb848"/>
  <path d="M118.57,157.44c.31.36.29,1.28.86,1.9,2.96,3.22,5.62,6.42,8.41,9.74s8.47,5.64,2.96,10.2l-24.7-3.81,2.87-4.58,17.31,3.57c.48-1.87-1.19-1.91-1.84-2.7-3.25-3.93-6.79-7.62-9.72-11.75l1.97-3.01c.52-.34,1.53.03,1.88.45Z" fill="#efb848"/>
  <path d="M208.97,89.15l.8,2.01c.96,2.35-6.3,2.92-6.31,3.76l6.07,18.92-5.03.49-5.07-17.65-6.74,1.47-1.83-3.49,18.11-5.51Z" fill="#efb848"/>
  <path d="M370.96,162.36c-.38,1.71,1.69,1.74,1.57,2.74-.22,1.82-4.96,3.99.3,7.29l9.92-5.12c1.6-2.29,4.86-2.31,6.65-4.41,5.29,4.89-.19,5.49-3.95,7.67-1.85,1.07-5.26,3.71-7.02,4.58-7.44,3.7-11.07-.72-12.97-7.49,1.52-.34.82-1.77,1.33-2.64.46-.77,3.34-3.43,4.16-2.61Z" fill="#efb848"/>
  <path d="M367.46,399.71l9.08,2.28-2.79,2.28c-3.56-.4-7.57-3.62-10.6-.52l4.21,5.82-2.11,1.73-10.91-12.84c3.65-2.12,7.88-9.07,12.59-6.04,2.86,1.85,2.41,4.92.52,7.3ZM360.91,402.24c.34.24,4.61-3.25,4.78-3.53.63-1.03.41-3.22-.75-3.8-2.03-1.01-4.98,1.97-6.32,3.29l2.3,4.05Z" fill="#efb848"/>
  <path d="M427.99,315.39l-.84,3.53-12.25,3.27,10.08,3.29-1.25,2.96-15.36-5.03c-.21-1.27.12-2.76,1.33-3.38,1.62-.82,11.17-2.07,11.75-2.64.21-1.15-.06-.8-.64-1.12-2.37-1.31-6.75-2.09-9.45-2.92l.54-2.49,16.1,4.53Z" fill="#efb848"/>
  <path d="M395.22,362.35c-.29,1.17.23.83.64,1.15,2.28,1.79,5.37,3.46,7.88,4.96l-1.2,2.97-13.84-9.39c-1.13-4.74,11.77-1.38,14.09-2.22.19-.84-.27-1.02-.76-1.51-1.02-.99-7.79-4.84-7.8-5.31l1.76-2.27,13.87,9.37c-1.87,5.61-10.06,1.1-14.62,2.24Z" fill="#efb848"/>
  <path d="M229.72,443.66c1.22.16.8,0,1.06-.7.58-1.58.98-9.47,1.48-9.88l2.02.19.52,1.54-2.09,15.38c-3.07,2.61-7.15-9.74-8.06-11.59-1.31-.16-.79.02-1.02.73-.86,2.79-.59,6.49-1.23,9.39l-2.78-.04,2.03-16.62,3.26.47,4.8,11.11Z" fill="#efb848"/>
  <path d="M309.94,429.01c-3.03,2.04-3.63-.66-6.3-.53-7.22.34-5.19,11.79.5,12.19,2.74.19,6.84-1.85,5.26-5.05l-3.77.94-1.25-2.47,7.06-2.03,1.8,6.03c.05,1.12-3.08,3.44-4.16,3.98-11.92,6.03-18.16-11.25-8.44-15.52,3.11-1.37,8.09-1.44,9.28,2.47Z" fill="#efb848"/>
  <path d="M240.98,449.04c-1.92-1.91-1.93-5.11-1.7-7.68,1.1-12.36,20.56-8.61,15.41,5.33-1.97,5.35-9.97,6.07-13.71,2.35ZM251.26,438.24c-1.24-1.55-4.44-2.07-6.29-1.27-4.02,1.74-4.52,13.08,3.63,11.71,3.79-.64,4.49-8.12,2.66-10.43Z" fill="#efb848"/>
  <path d="M282.57,431.17c12.15-1.69,14.28,18.54-.13,17.04-8.16-.85-9.49-15.7.13-17.04ZM283.07,433.67c-6.01.99-4.66,11.27-.09,11.98,9.11,1.43,7.72-13.25.09-11.98Z" fill="#efb848"/>
  <path d="M205.5,435.58c4.71-1.24,7.32-7.04,12.61-4.54l-7.41,5.29,3.87,11.37c-5.89.22-4.73-6.01-6.56-10.1-3.7,1.64-4.1,3.1-5.01,6.86l-3.06-.31,4.04-16.66,2.99,1.32-1.48,6.76Z" fill="#efb848"/>
  <path d="M102.01,341.17l.84,2.5c-1.61,1.06-3.61,1.81-5.18,2.9-.34.23-1.43.31-.66,1.12.56.59,8.16,1.35,9.57,2.3.34.23,2.25,3.51,2.03,3.77l-9.03-2.49-5.35,10.57c-4.31-3.79,1.45-7.64,2.77-11.61-3.87-1.31-5.05-.72-8.33,1.38l-1.76-2.9,13.6-7.36,1.49-.18Z" fill="#efb848"/>
  <path d="M344.78,408.35l2.24,3.99,6.82-4.8c4.98,2.31-5.51,5.55-5.51,7.08l2.77,3.78,7.62-4.97,1.65,1.64-10.33,7.35-9.23-13.87c.05-.58,8.81-6.44,9.47-6.62.38-.1.68-.34,1.04.02l.96,1.57-7.5,4.83Z" fill="#efb848"/>
  <path d="M161.59,413.35l-2.44-1.08c.53-3.22-2.31-6.09-5.41-4.49-1.74,2.37,6.73,5.92,4.44,11.51-2.69,6.59-15.14.35-11.83-6.3.74-1.49,1.83.43,3.13.39-2.41,3.16,3.03,7.78,5.43,5.41,3.07-3.03-7.52-7.34-3.69-12.53,3.75-5.09,13.18,1.58,10.37,7.1Z" fill="#efb848"/>
  <path d="M199.39,426.03c1.16,5.5-7.83-1.06-9.05-.33l-1.29,3.84,7.38,2.77-.05,2.23-8.25-2.45-1.73,3.85c-.09,1.5,7,3.37,8.48,3.71l-.47,2.28-12.12-3.82,5.57-15.63,11.53,3.56Z" fill="#efb848"/>
  <path d="M84.4,344.16c.29-.93-.91-2.29-.87-2.79.1-1.48,3.52-1.23,2.26-4.92-1.38-4.08-1.73-4.91-6.39-4.47l-1.06-2.97,18.17-.26c.92.97,1.46,2.45.53,3.57-3.83,2.86-7.65,8.78-11.38,11.35-.43.29-.5.7-1.26.5ZM93.48,331.54h-6.56s1.02,4.54,1.02,4.54c1.04.91,4.84-3.56,5.54-4.54Z" fill="#efb848"/>
  <path d="M399.75,375.48l-1.84,2.47-4.62-.87-3.55,4.82c-.55,2.02,3.34,3.94-.32,6.69l-8.76-16.3c.66-1.2,1.7-2.14,3.15-1.87l15.96,5.05ZM384.62,373.96c-.62.64,2.73,5.13,3.28,6.05l3.27-3.78c0-.57-6.26-2.56-6.55-2.27Z" fill="#efb848"/>
  <path d="M140.91,413.86c-4.84-1.66-1.64-3.24-1.61-5.4.01-.77-4.54-4.44-5.33-4.61-1.88-.4-4.09,3.7-6.18-.58,3.03-.58,13.45-8.59,15.39-8.59.83,0,3.18,1.61,2.78,2.71l-5.05,16.47ZM142.42,398.71c-.52-.48-6.78,2.99-6.05,4.03l4.03,2.53,2.02-6.56Z" fill="#efb848"/>
  <path d="M112.15,359.81c-2.45,1.53-8.29,4.67-9.94,6.72-1.49,1.85-.36,5.03,1.85,5.71,2.99.91,9.21-5.29,11.96-6.81l2.13,2.23c-5.22,3.31-12.43,12.31-17.82,4.76-5.8-8.12,5.16-11.13,10.07-15.6l1.76,3Z" fill="#efb848"/>
  <path d="M422.46,333.05l-1,2.78-4.47.33c-.3.91-.78,1.74-1.18,2.61-.32.7-1.43,3.15-1.42,3.63.03,1.62,4.64,3.11,1.25,6.29l-12.35-13.36,1.34-2.81,17.82.53ZM414.39,335.57h-7.06c-.52,1.24,4.07,4.94,4.79,5.07,1.01.17.65-.21.88-.66.31-.6,1.69-4.13,1.4-4.4Z" fill="#efb848"/>
  <path d="M186.26,97.74l9.12,21.64-4.5,1.52c-2.76-7.23-5.55-14.92-9.61-21.45,1.51-.96,3.03-2.21,4.99-1.71Z" fill="#efb848"/>
  <path d="M336.68,430.52l-3.02,1.02-7.59-14.88c3.09-1.09,7.41-4.91,10.62-4.08s4.95,5.65,2.74,8.33c-.76.92-5.69,3.36-5.73,3.8l2.98,5.81ZM336.54,419.78c3.56-4.29-3.88-5.75-6.37-2.08l2.3,4.22c.6.17,3.72-1.71,4.07-2.13Z" fill="#efb848"/>
  <path d="M126.78,189.61l-1.52,4.54c-1.87-.59-3.81-1.32-5.66-2.06-1.31-.53-2.92-1.12-4.43-1.73-4.01-1.62-7.81-4.09-12.12-4.8l1.02-4.54,22.7,8.59Z" fill="#efb848"/>
  <path d="M381.08,148.71l-.29,1.03c-2.3-.03-2.54,1.8-3.76,2.74-3.93,3.03-8.28,5.42-12.06,8.16-.86.62-1.95,2.9-3.27,2.75-.92-1.33-2.29-1.95-2.24-3.78,1.6-2.14,4.19-2.93,6.17-4.42,2.75-2.07,5.4-4.55,8.2-6.4.95-.62,3.81-2.91,4.73-2.4.82.45,1.07,2.39,2.52,2.32Z" fill="#efb848"/>
  <path d="M90.98,321.92l-2.07-7.54-4.51,1c-.35.34,4.66,9.37-.5,7.23l-1.53-6.22-7.56,2.02-.49-3,16.13-5.08c.03,2.87,3.06,7.9,3.03,10.39-.02,1.36-1.46,1.36-2.49,1.21Z" fill="#efb848"/>
  <path d="M76.83,208.8c.28-1.17-.22-.83-.64-1.16-1.57-1.23-4.03-2.21-5.91-2.91l.52-2.97,11.58,2c.29,3.94-4.8.2-7.06.5-1.21,1.08,5.53,3.47,5.84,4.04l-.29,2.02h-7.57c-.28,2.32,6.53,2,7.06,2.53l-.52,2.02-11.09-2.53.51-3.53h7.57Z" fill="#efb848"/>
  <polygon points="376.29 378.01 378.05 379.77 374.53 383.3 385.11 393.4 382.85 395.67 372.26 385.59 369.17 389.09 366.97 387.34 376.29 378.01" fill="#efb848"/>
  <path d="M184.8,420.45l-.82,2.04-4.73-1.34-5.55,12.41-3.51-1.26,5.98-12.22c.11-1.18-3.37-2.39-4.48-2.69l1.02-2.52,12.09,5.58Z" fill="#efb848"/>
  <path d="M129.05,381.04l9.3,9.77-1.66,1.29c-1.27-.67-2.49-3.33-4.01-2.94-1.63.43-8.79,9.74-10.12,9.51l-1.82-1.73,10.07-10.61-3.51-3.54,1.76-1.76Z" fill="#efb848"/>
  <polygon points="263.01 434.06 264.02 448.21 272.6 447.7 273.11 450.22 260.99 451.24 259.96 434.88 263.01 434.06" fill="#efb848"/>
  <path d="M120.54,371.97c.66-.12,2.62,1.62,1.98,2.49l-10.37,8.84,5.51,6.13-1.73,2.19-7.81-8.82,12.42-10.82Z" fill="#efb848"/>
  <path d="M225.67,61.31l2.02,11.61c-4.34.79-4.95-5.1-8.57-6.05l1,7.07h-2.01s-1.52-11.11-1.52-11.11c1.98-1.91,5.69,4.02,6.92,5.41.3.34-.03.97,1.15.64l-.95-6.78,1.96-.8Z" fill="#efb848"/>
  <path d="M412.37,169.4l7.06-3.03v1.75s-10.08,4.81-10.08,4.81c-2.11-1.56,3.48-7.74,4.03-9.59l-6.82,3.01-.73-1.98,9.83-4.51c3.35,1.79-4.41,8.06-3.28,9.54Z" fill="#efb848"/>
  <path d="M117.2,123.44c-.89.84,4.77,4.65,4.54,5.8-.11.55-.83.88-1.52.52-2-1.03-5.5-6.29-8.06-7.59,2.28-2.82,6.9.33,10.08.25.72-.67-4.06-4.57-4.54-5.31l1.25-1.25c.8,1.32,7.92,7.09,7.8,7.77-.49,2.92-7.7-.38-9.56-.19Z" fill="#efb848"/>
  <path d="M100.91,143.78c1.24,1.33-.17,3.56.14,3.91l6.05-.5c-.54,4-6.73.21-8.05,3.81-.29.78,3.24,2.54,4.02,2.77l-1.26,2-9.3-6.36c1.05-2.81,4.97-9.32,8.41-5.63ZM99.53,145.16c-2.86-.96-6.6,3.82-3,4.77,2.53.67,3.05-2.75,3-4.77Z" fill="#efb848"/>
  <path d="M89.95,180.02c1.72,2.38-7.74,3.39-9.09,3.53l.65,1.12,5.34,1.97.07,1.95-11.09-4.06c.4-.56.29-1.75.86-2,1.35-.6,7.52-.78,8.22-1.51s-.19-.87-.64-1.12c-2.08-1.15-6.26-1.03-5.4-3.92l11.1,4.05Z" fill="#efb848"/>
  <path d="M135.36,108.79c1.88.26,4.86.35,6.05,2.02-3,2.34-5.73-1.72-8.57.27-1.25,1.14,1.8,3.47,2.51,4.54l-2.01,1.26-7.07-8.84c2.57-1.55,5.4-6.65,8.61-4.08,2.69,2.15.26,4.67.47,4.83ZM130.38,110.24c1.32.77,5.44-3.38,3.5-4.76-1.49-1.06-4.08,1.49-5.05,2.56l1.56,2.2Z" fill="#efb848"/>
  <path d="M327.61,84.55c1.29-.61,2.92-7.02,3.77-7.03.08,0,1.67.52,1.2,1.14l-4.47,9.73c-3.09,1.91-2.43-7.73-3.03-8.37-2.87.3-1.63,5.93-5.04,5.55l4.04-10.6c3.98-.1,2.33,6.76,3.53,9.59Z" fill="#efb848"/>
  <path d="M364.44,107.78c1.18.33.85-.31,1.15-.64,1.42-1.59,2.46-3.52,4.14-4.9l1.25,1.25-7.31,8.83c-2.25,0-.71-8.57-.25-10.09-1-.8-4.34,4.94-5.3,5.54l-1.16-1.25,6.46-8.84c4.16.05.11,8.98,1,10.09Z" fill="#efb848"/>
  <path d="M388.47,120.95c4.03,2.57,6.77,6.74,2.45,10.57-4.91,4.34-7.56.39-10.83-3.28l8.38-7.29ZM388.47,123.48l-5.86,5.27c3.79,6.81,13.05-1.71,5.86-5.27Z" fill="#efb848"/>
  <path d="M280.54,62.46c1.31,1.44.72,3.37-1.26,2.27-.37-.2-.4-1.47-2-1.81-5.35-1.14-6.45,8.37-.9,8.51,1.81.05,3.43-.47,2.77-2.51l-2-.27-.5-1.77,5.04.51-.74,4.56c-6.4,3.84-13.82-2.63-8.86-8.87,1.73-2.18,6.73-2.51,8.45-.61Z" fill="#efb848"/>
  <path d="M234.63,60.43c8.54-1.55,9.04,10.1,2.79,11.38-8.33,1.71-9.36-10.19-2.79-11.38ZM234.62,61.92c-2.68.79-2.64,6.99-.24,8.11,6.39,2.99,7.03-10.11.24-8.11Z" fill="#efb848"/>
  <path d="M212.56,63.85l-2.46,5.19,5.48,5.91c-3.26,1.4-4.51-2.31-6.81-4.03-2.46,1.77-1.34,3.56-1.26,6.05l-1.98-.03-2.02-11.04,1.73-.04c.57.34.31,4.64,1.51,4.04,2.18-1.98,2.2-6.27,5.81-6.05Z" fill="#efb848"/>
  <path d="M295.31,76.97l3-10.9c5.92.13,9.9,2.9,7.04,9.08-2.31,4.98-5.94,2.21-10.04,1.82ZM297.85,75.94c3.9,1.58,6.35-.21,6.52-4.32.11-2.63-3.73-4.74-4.78-3.24l-1.74,7.56Z" fill="#efb848"/>
  <path d="M77.83,230.01l-.08,2.44-5.47,2.87c.72,2.46,2.9,2.44,5.05,2.26v2.02s-11.61-.51-11.61-.51v-2.02s5.05,0,5.05,0c-1.34-3.12-5.41-4.25-4.54-8.07l4.36,4.46,7.24-3.45Z" fill="#efb848"/>
  <path d="M374.03,106.78h.74c4.25,2.93,7.31,7.17,2.25,11.33-4.01,3.29-7.21.12-9.93-2.99l6.95-8.34ZM374.85,109.34l-5.36,5.77,3.38,2.7c4.39-.81,7.34-6.18,1.98-8.47Z" fill="#efb848"/>
  <path d="M259.86,59.93c10.27-2.64,9.84,14.43-.4,11.26-4.46-1.38-3.92-10.15.4-11.26ZM260.86,61.42c-3.63.81-3.59,8.97,1.35,8.48,4.36-.43,4.39-9.77-1.35-8.48Z" fill="#efb848"/>
  <path d="M401.77,136.07l.29,2.01c-.31.49-4.23,2.31-3.31,3.04,2.96.66,7.08-.6,8.07,3.03l-5.99-.95-3.34,7.51c-2.96-2.52,1.44-5.13,1.26-8.07-2.85-.88-3.5.26-5.79,1.51-.62-.47-.94-.91-.79-1.74.1-.57,8.31-5.66,9.61-6.34Z" fill="#efb848"/>
  <polygon points="69.76 216.89 68.8 223.4 71.3 223.74 72.29 217.89 74.31 217.9 73.25 223.63 76.79 224.41 77.83 218.23 79.35 217.89 78.34 226.98 66.95 224.99 67.75 216.88 69.76 216.89" fill="#efb848"/>
  <path d="M359.89,96.16c-.48.43-4.33-2.75-5.21-3.13-1.45-.62-1.9,1.38-1.78,2.55l4.26,2.6-.29,1.52-5.23-2.99-1.76,2.67,4.98,3.36c-.44,3.63-5.82-1.88-7.54-2.86l6.28-9.77,6.32,4.31v1.74Z" fill="#efb848"/>
  <path d="M145.45,102.73c1.39-2.57,7.66.69,6.07-4.3-1.79-1.21-7.75,3.17-8.85-1.69-.43-1.88,2.38-4.3,4.08-4.58,1.21-.2,4.21-.19,2.75,1.75-2.27.24-4.5-.6-5.06,2.5.56,2.75,7.16-3.27,9.21,1.41,1.8,4.1-4.84,7.84-8.2,4.91Z" fill="#efb848"/>
  <path d="M75.76,189.17l-1.45,6.5,3.02.51c.11-1.44.62-2.85,1.15-4.17.22-.54.19-1.77,1.11-1.38,1.84.79-1.12,4.39-.71,5.74.28.91,2.61,1.34,3.49,1.33l1.47-5.77,1.56-.29-2.02,8.58-11.08-3.05,2.01-8.57,1.45.57Z" fill="#efb848"/>
  <path d="M316.93,71.5c.71,1.11-.54,10.28.57,12.55-3.57-.23-2.04-3.35-2.57-3.99-.12-.15-3.23-1.17-3.6-1.24-1.46-.3-1.98.94-2.45,2.15l-1.96-.46c-.36-.35,1.65-2.8,2.03-3.27.96-1.17,5.28-6.22,6.27-6.3.31-.02,1.61.39,1.71.56ZM314.98,73.95c-.66-.74-3.02,2.57-3.03,3.27l2.77,1.28.26-4.55Z" fill="#efb848"/>
  <path d="M160.08,84.04l.51,1.5-5.33,3.03.8,2.54c.67.51,5.16-3.42,6.04-2.52,1.44,1.46-4.15,3.06-4.47,3.61l.95,3.46,5.81-3.05,1.25,1.53-7.32,4.04-5.68-9.85,7.44-4.29Z" fill="#efb848"/>
  <polygon points="198.89 67.41 199.44 68.89 193.38 70.41 193.89 73.44 199.94 71.93 199.64 73.48 194.39 74.96 195.41 78.49 201.2 76.96 202.46 78.49 193.89 80.51 190.86 69.4 198.89 67.41" fill="#efb848"/>
  <path d="M91.46,153.75l-2.97,5.82,2.21,1.75c1.16-.44,2.8-6.47,4.28-5.04.84.8-2.87,5.56-2.52,6.05l3.52,1.52c.1-.91,2.65-6.88,4.04-5.55.48.46-3.83,8.06-4.28,8.07l-9.84-5.56,4.05-7.57,1.5.51Z" fill="#efb848"/>
  <path d="M403.79,161.82c-1.45-1.12.76-2.82.94-3.39.27-.86-1.68-4.4-2.04-4.61-.91-.53-3.81,1.55-3.95-1.59l12.13-1.78c.59.7,1.05,1.34.74,2.25-.21.61-5.31,7.34-6.06,8.12-.37.38-1.22,1.43-1.77,1ZM408.83,152.74c-3.76.14-6.67.3-2.28,3.53l2.28-3.53Z" fill="#efb848"/>
  <path d="M118.71,132.03l-1.31,1.96c-3.45-1.84-3.66.59-5.67,2.91l1.34,2.45-1.91,1.26c-.16-1.91-5.63-9.26-5.47-10.25.04-.22,1.06-1.88,1.22-1.89l11.81,3.57ZM112.65,132.03l-4.54-1.01,2.28,4.04c.89.21,2.7-2.03,2.26-3.03Z" fill="#efb848"/>
  <path d="M315.95,421.98l6.09,15.37-2.77,1.25c-1.18-4.41-5.68-11.23-6.3-15.43-.18-1.23,2.2-1.29,2.98-1.19Z" fill="#efb848"/>
  <path d="M413.85,351.78c.39.55-.56,3.1-1.64,2.93l-14.47-7.76,1.04-2.25,15.06,7.08Z" fill="#efb848"/>
  <path d="M340.26,90.64l-1.58,3.48-1.94-1.17,5.78-9.41c2.58,1.58,8.07,3.6,5.48,7.53-2.61,3.97-6.84-1.09-7.74-.44ZM342.78,86.1l-1.54,2.74c5.27,4.83,7.72-2.03,1.54-2.74Z" fill="#efb848"/>
  <path d="M184.82,73.46c-.61.84,2.72,7.05,2.93,8.43.11.7.03,1.35-.68,1.64-1.31.54-.99-.07-1.3-.72-1.2-2.52-2.02-5.71-2.99-8.37l-3.28,1.51c-.59-1.12-1.36-1.49-.04-2.05,2.57-1.1,5.34-1.79,7.87-2.99l.29,1.53-2.79,1.02Z" fill="#efb848"/>
  <polygon points="170.7 90.59 166.65 82.24 163.37 83.04 163.1 81.77 171.18 77.99 171.47 79.51 168.7 81.32 172.63 89.44 170.7 90.59" fill="#efb848"/>
  <path d="M85.4,164.36l-1.01,4.03,9.08,3.55-1,1.8-8.82-3.85-1.31,3.04-1.99-.5c1.34-2.1,2.06-4.87,3.43-6.91.44-.65.57-1.38,1.61-1.16Z" fill="#efb848"/>
  <polygon points="247.37 59.8 247.37 69.4 253.43 69.4 253.43 70.91 245.36 70.91 245.36 59.8 247.37 59.8" fill="#efb848"/>
  <path d="M384.36,115.87l1.04,2.01c-1.36,1.09-6.72,7.34-8.09,7.08-.6-.56-.98-.64-.53-1.53,1.02-1.97,6.11-5.38,7.58-7.56Z" fill="#efb848"/>
  <path d="M286.22,74.45l-1.53-.23c-1.29-.9,1.5-9.19,1.53-11.06.47-.89,2.1-.17,1.92.82l-1.92,10.48Z" fill="#efb848"/>
  <path d="M100.87,136.63l9.25,6.76-1.25,1.13c-3.35-1.86-6.22-4.47-9.33-6.69l1.33-1.2Z" fill="#efb848"/>
  <path d="M397.49,131.12l1.25,1.16-8.82,7.31c-.82-.87-1.79-1.07-.73-2.23,1.83-2.01,6.19-4.2,8.31-6.23Z" fill="#efb848"/>
  <path d="M144.94,107.78c-.8-.03-1,.64-1.77.06-.37-.28-5.29-6.73-5.72-7.45-.81-1.37-.52-2.55.94-1.95.67.27,6.99,8.81,6.55,9.35Z" fill="#efb848"/>
  <g>
    <path d="M399.6,186.94c-3.95,2.46-6.47,7.18-10.3,9.38-.68,1.94-2.56,2.35-3.86,3.48-.72.62-2.97,3.88-3.85,2.95.64-1.54-1.16-3.19-1.03-4.24.03-.26.68-.29.83-.53.23-.36.17-.97.34-1.13.57-.53,1.9-.18,2.31-1.53.29-3.49-2.3-6.19-2.92-9.52-4.01-.23-7.13.95-7.6-4.26l24.88-.41c1.58.47,2.41,4.47,1.2,5.82ZM394.2,185.06l-8.58.5c.53,9.23,4.03,6.08,7.82,1.01.38-.5.99-.63.75-1.51Z" fill="#efb848"/>
    <path d="M410.24,227.09l.03,4.87-22.89,10.69-.25-5.06c2.45.77,2.55-1.03,3.14-1.4s1.73.04,1.9-.11c.18-.16.04-4,0-4.79-.1-1.66-.82-3.43-.55-5.26l-5.94-1.63-.06-4.98,24.61,7.68ZM398.6,227.15c-1.05-.45-2.3-.06-3.39-.17-1.11,8.69,3.64,6.13,9.06,3.51l-.47-1.75c-1.54-.37-3.13-.4-4.66-.79-.37-.09-.41-.75-.54-.8Z" fill="#efb848"/>
    <path d="M403.99,201.43c-1.54,1.66-3.93,3.56-5.21,5.13-.4.49-.75.64-.53,1.48,2.7,2.24,6.41,1.89,9.59,3.03l2.01,5.3-15.9-5.1-10.34,2.08v-4.54s9.25-2.13,9.25-2.13l11.19-11.01,1.24,4.35c.05.9-.87.96-1.29,1.41Z" fill="#efb848"/>
  </g>
  <g>
    <path d="M230.72,150.21c.02-.33-.03-.68,0-1.01,2.75.84,2.91-.96,3.92-1.51,1.21-.66,3.33-.34,4.71-.73.97-.27.89-1.2,1.3-1.29,1.69-.37,11.57-.29,13.55-.05.9.11.74.88,1.12,1.01,3.4,1.11,6.33,2.42,9.36,4.19,1.96,1.14,1.62,2.95,1.95,3.35.11.14,2.93,1.17,3.2,1.57.6.86-.06,2.6.31,2.99.16.17,1.05-.03,1.67.6,1.15,1.17,1.69,4.72,3.29,5.03l-.02.97c-2.71.55.16,2.72.08,3.83.01.95-.97.48-1.09,1.47-.71,5.78,1.4,22.16-.58,26.2-.35.71-1.14.67-1.5,1.57-.59,1.5.18,2.74-.2,4.26s-2.74,1.87-2.02,4.65c.07.28,3.33,3.06,3.84,3.22,1.04.34,1.91.1,2.65.31.32.09,3.03,2.44,3.24,2.49.8.18,1.99-.23,2.71.23.79.51.3,2.14.49,2.96.09.39.77.38.95.75.78,1.52-.21,2.59,2.56,2.14v-10.1c-1.04.12-1.16.05-1.01-1.01l6.06-.25,2.01-4.29-3.18.54-1.28-1.9c-.23-.67,1.73-1.49,2.19-2.71.2-.54.54-.97,0-1.5l-3.06-3.01-1.75.73c-.05-1.11,1.33-.97,1.69-1.88.52-1.29.02-2.96.6-3.93.23-.38,1.33-1.95,1.78-2.63,1.46-2.22,4.43-3.62,2.72-6.95-.3-.58-3.73-3.01-4.1-3.69-.51-.95-.5-3.54-1.28-4.28-1.31-1.24-2.87.64-2.95-3.9-.05-2.53,1.63-4.44,4.23-3.78.36.09.24,1.57,2.54.99,2.36-3.14,1.02,1.64,1.57,2.54.45.73,1.88.73,2.64,1.16.52.29.69,2.02,2.67,1.36-.57-2.16.76-1.87,1.46-2.83,1.28-1.76-.43-2.51-1.16-3.78-.77-1.35.02-3.31-2.8-2.21l-3.05,2.75c.69-.88.63-3.36,1.12-3.92.58-.66,2.63-.07,2.43-1.61l.74-.02c.23,1.23,1.51.87,1.81,1.32.09.13,1.36,2.47,1.43,2.61.36.8.76,3.86,1.11,4.09,1.9.97,2.19-1.24,2.68-1.33,3.33-.62,2.47,7.1,1.36,8.68-.46.65-1.9.04-2.62.5-.59.41-.28,1.59-.63,2.16-.33.54-2.99,2.99-3.1,3.19-.69,1.34.01,2.85-.29,4.19-.04.2-1.3,3.08-1.51,3.5-.98,1.93-3.6,3.83-4.57,6.68-.18.53-.63,3.15-.47,3.31,2.41-.57,2.71,1.68,4.54,1.52-.02-2.32.25-4.5,2.2-5.91.47-.34,1.29-.11,1.33-.16-1.34,2.16-3.06,5.16-2.4,7.71,1.45,5.54,7.36,2.76,11.7,3.44.43.07,4.14,1.32,4.44,1.49.61.35.62,1.11,1.12,1.53s1.32.32,1.65.63c.45.43.83,2.84,1.91,3.38,1.03-1.06,1.76-2.21,3.44-2.02,1.61-1.72-.95-2.24-1.13-2.83-.18-.63.74-5.95.47-7.41-.13-.67-2.53-1.72-2.53-1.88v-12.12c-.71-.12-1.16.22-1.69.6-1.51,1.07-4.52,4.9-5.91,5.68-.86.48-4.9,1.22-5.46.74-.79-5.69-1.12-3.36-3.61-.81-.69.71-.91.12-2,1.88.2-.21-.3-2.06.08-2.48.13-.14.92.06,1.24-.21,2.27-1.93,2.12-5.69,5.68-4.81-.04,1.36,3.59,5.07,4.61,3.97.17-.19-.28-1.55.09-1.96.11-.12,2.31-.93,2.91-1.44,1.62-1.38,3.14-3.5,4.03-5.46,3.95-1.33,1.34,2.8,3.57,3.56l-.03.74c-1.36-.27-1.21,1.64-.97,2.69.09.41.92.49,1.16.97,2.84,5.61,4.76,14.66,3.82,21.33-.57,4.08-5.38,1.67-6.73,4.33-.92,1.82.63,4.43-.39,6.45-2.64.09-3.15,2.34-5.45,2.13-.96,4.59,6.66,4.91,9.2,3.52.86-.47.95-1.93,1.55-2.37.77-.56,4.25-1.5,5.29-2.03.8-.41,3.98-3.86,3.14-4.68h-3.53c-1.16-2.06,2.24-4.04,2.52-4.92.54-1.71.14-4.66.89-6.57,1.51-3.84,5.07-5.03,8.86-4.16.22.05,3.09,2.52,3.49,2.67.91.35,2.32.17,2.94.6.12.08,1.53,2.33,1.58,2.47.63,1.84.63,4.2-.12,5.99-.14.33-2.65,1.64.03,1.9l-1.12,1.87-3.92.65.3,1.99-.62.97-5.68-.38c-.25,1.63-.91,2.63-2.15,3.66-2.26,1.88-.76.92-1.92,3.01-.57,1.02-3.28,2.3-3.44,2.52-.21.27,0,1.01-.21,1.24-.84.92-4.42.39-5.6.65-.42.09-3.01,2.47-3.23,2.52-1.76.44-5.63.02-7.4.58-.14.04-2,1.81-2.07,1.94-.43.86-.07,1.74-.4,2.4-.08.15-2.14,2.01-2.33,2.56-.38,1.06-.48,4.4-.63,4.57-.2.22-1.29-.02-1.71.56-.3.41-.1,1.26-.43,1.85-.21.37-1.77,1.93-1.8,2.07-.38,1.73.56,4.28-.05,6.33-.12.42-.81.37-1.06,1.06-.69,1.91-2.74,6.37-2.93,7.24-.64,2.83-1.28,5-2.36,7.62-.3.73-1.75.92-1.7,2.13l-.96-.04c.08-1.73-2.36-.77-3.74-.98l-.6,1-.24,29.33,5.05-.5c.21-.21-.31-3.56-.55-4.15-.19-.46-1.47-.92-1.47-1.66v-14.9h1.51v15.4c0,.3,2.84,4.31,3.12,5.2l1.96-.12c.5-.35.5-.97.5-1.52-.01-1.22-.38-4.97-1.55-5.07l1.04-.58.21-8.78c.95-1.14,1.57.08,2.28.77l-1.5,2.27c2.51.42,4.95-1.24,7.33-.07l.68-1.11-1.96-4.37c1.48-.04,2.82-.16,4.18.51.25.12.32.76.74.97.71.36,2.01.25,2.52.65,1.27,1.01-.14,13.71.12,16.04l4.04-1.76c.67-.55.78-8.98.42-10.03-.28-.82-1.6-.87-1.87-1.67-.31-.93.09-2.22-.19-3.34-.22-.89-2.92-5.07-3.63-5.95-1.4-1.72-3.04-1.66-3.27-4.31-2.53-.05-5.48-.97-7.83-.19-2.06.69-6.05,3.8-6.35,6.03-2.06.39-.6-2.98.04-3.75,1.13-1.38,3.02-1.44,3.97-2.08.51-.35.63-1.22,1.04-1.48.82-.53,8.72-.35,10.22-.12.28.04,4.68,1.8,5.08,1.99.96.46.74,2.07,2.86,1.41v-12.88c0-.2,2.54-2.05,3.03-2.65s.64-2.12,1.13-2.52,1.73-.22,2.29-.75c.33-.31.31-1.19.79-1.72,1.25-1.36,3.48-2.33,4.58-3.75.65-.84.6-2.06.9-2.38.64-.67,3.19-.37,4.04-.63.11-.03,1.7-1.52,1.76-1.63.83-1.68-2.11-4.67-1.88-6.95,1.06.18,1.76.67,2.89.18.86-.37,2.88-3.86,3.66-3.21l1.52,2.52c-2.7-1.48-5.41,1.38-5.55,4.04,2.97.2,5.31.06,8.07-1-.53,1.63-1.24,2.21-3.01,2.04-.26.24.17,3.69-.04,4.67-.05.22-2.27,2.37-2.36,2.52-1.26,2.23,0,6.23-.18,8.68l1.58.56c-.51,3.48.58,8.34-.03,11.61-.23,1.23-1.19,1.03-1.55,1.6-.4.64-.34,2.07-.96,2.45-.65.41-1.68.03-2.16.26s-.47.83-.77.94c-2.33.82-5.67.77-8.19,1.05-.05,1.14.23,3.32-.45,4.23-.44.59-2.22.23-2.22,2.21l-4.4,2.48c-.21,5.62-2.37,13.64,3.03,17.2-.69,4.71,1.62,9.84-.02,14.4-.12.34-.87.37-.95.75-.43,1.89.49,5.18-.1,6.89-.31.9-1.84.81-1.98,2.1-.19,1.75,1.4,1.49,1.56,2.12.29,1.14.22,11.01.03,12.56-.06.5-1.27,1.52-1.49,3.57-.25,2.42.9,5.56-1.6,6.51v1c3.41,1.48-1.99,4.51,1.03,5.56l-1.03.56v1.41s1.03.56,1.03.56l-1.03.58c-.19,1.41.27,3.15.02,4.49-.04.2-1.64,2.72-2.02,3.43-.26.48-1.39.11-1.02,1.58.05.2,1.09.21,1.29,1.75.53,4.16-4.13,4.62-7.29,4.03l-.56-7.02c-1.37.25-5.49-.71-5.99.83l-.54,5.02c-2.56.16-3.58,2.01-6.52,1.16-.56-.34-.75-3.94-.59-4.75.25-1.23,1.22-1.05,1.4-1.35,1.02-1.75-.38-2.31-2.07-1.92-.61.14,0,1.23-.83,1.02l-.51-3.53,1.03,1.46,3,.05v-16.67c-3.31,0-1.48-1.86-1.56-3.34-.19-3.42-.33-6.74-.27-10.13.05-2.87.69-5.98.25-8.93l-.76-.76-3.72-.07c-.62,6.2-.17,12.27-.02,18.43.06,2.51-1.07,5.54.06,7.95.25.54,1.12.41,1.36,1.74.54,2.89-.2,6.52.62,9.5l-1-.06c.66-1.61-1.46-3.38-1.5-3.57-.85-3.72.19-10.79-.51-14.56-.24-1.31-1.43-.82-1.57-1.98-.33-2.77-.33-10.92,0-13.68.11-.92,1.9-1.08,1.6-4.03-.19-1.92-1.35-1.43-1.57-2.12-.4-1.26-.32-4.22-.5-5.69,1.94.71.47,3.95,1.09,4.97,1.95,1.29,4.92,1.08,7.12.48.92-.25,1.47-1.02,2.28-1.26,1.9-.56,5.59-.1,5.67-2.92,0-.29-.94-.19-1.03-.59-.18-.75.25-2.31-.04-2.66-.09-.11-1.51-.22-2.13-.55-.31-.17-.3-.96-.66-1.02-2.16-.41-1.95,1.38-2.56,1.54-2.4.63-6.23-.41-5.73-3.52l-3.01-.03c-.41.4.93,3.6-1,3.03l.5-5.55-2.54.23-.47,10.02c-2.86,1.4-1.02,3.52-1,5.68.02,1.95-.95,4.53-1,6.08-.22,6.61,1.16,15.3-1,21.31-1.29,3.6-.03,7.9-.5,11.51-.12.93-.94.66-1.04,1.07-.51,2.17.49,4.98-.44,7.54-.41,1.13-1.64,4.3-2.14,5.35-.12.26-2.89,2.92-3.22,2.96-1.01.12-4.04.15-4.96-.06-.19-.04-2.23-2.1-2.57-2.34-.37-.27-1.13-.08-1.25-.21-.2-.22-.01-3.19-.49-4.32-.42-1-1.1-.62-1.1-.68v-7.58l-2.45.58c-.51,3.42.38,9.84-3.64,10.82-.61,2.09.89,2.24,1,2.62.31,1.05.31,7.8,0,8.16-.16.18-1.53.14-2.13.52-.56.36-.36,1.33-1.59,1.55-.9.17-6.34.12-6.85-.25-.12-.09-1.5-2.37-1.52-2.51-.22-1.83.52-7.88-.18-8.9l-6.03-.44-.78-1.83-.8-.24c-2.07,1.37-2.97,2.62-5.8,2.03l-.02,8.72-3.37,2.92-7.81-.04c-.44-1.17-2.07-1.22-2.47-1.83-1.06-1.62.53-4.87-1.46-4.73v-.49c1.48.14,1.08-1.59,1.54-2.65.2-.46,1.61-.53,1-2.61-.21-.73-3.56,0-3.56-2.58v-8.33c0-.06-1.25.33-1.01-.5l1.27-.37c2.59.24.11,9.42,2.01,9.96.78.22,5.34-4.09,6.56-4.54l-.25-5.05,2.55,4.3-.09.69c-1.33.6-2.68.82-2.51,2.52l-1.98.07.07,1.97,1.44.8c-2.58,1.9-5.75,5.11-5.54,8.56.24,3.9,8.99,4.26,10.22,1.68.57-1.2.55-5.27.34-6.67-.29-1.92-1.33-4.04-3.5-3.82,2.67-4.1,3.75-.25,6.4.94,3.25,1.46,5.63-2.53,4.73-5.71l-1.48-.33-.08-1.72,1.13-.26c1.39-1.67-2.18-1.87-1.12-4.54l-2.23.44c-1.82-1.31-.95-3.96-1.31-5.65-.04-.2-2-1.94-2.39-3.25-.53-1.76-.66-5.02-1.15-6.85-.29-1.1-.43.43-.55-2.65-.04-1.07-1.28-2.35-.98-3.74-2.13.23-3.61-.27-3.02-2.71.29-1.17,5-1.47-1.49-5.15l3.05-1.55c.64-3.52-1.21-3.81-1.54-5.53-1.5-7.76-.77-16.72-.03-24.27.21-2.14-.09-4.38.02-6.53,2.84-1.4,2.13,4.62,2.05,6.58-.03.83-.14,3.48-.24,4.03-.14.79-1.8,1.4-1.3,2.76l5.04.5c.52-1.38-2.01-3.16-2.04-3.37-.12-.83.47-1.68.43-2.44-.07-1.3-.95-2.98-.15-4.3,1.41,7.04,4.3,10.13,11.62,10.6.73.05,2,.46,1.75-.74-.89-.59-2.82-1.52-3.35-2.45-1.01-1.79-1.12-2.68-2.48-4.35-.47-.58-1.3-.43-1.57-.7-1.16-1.16-1.35-2.79-1.18-4.38l.79,2.53h3.75s-.08-2.47-.08-2.47c-2.27-.27-3.33-3.02-5.21-4.13-2.28-1.35-5.44-2.41-7.73-3.34-.74-.3-.7-1.35-1.45-1.61-1.01-.35-2.56.5-2.62-1.44-.08-2.59,6.2,1.12,7.58,1.89.6.33.66,1.21,1.24,1.4,1.07.35,2.57-.04,3.72.09-.4-3.08.32-5.4,3.07-6.9l-.56-1.94,1.01.25c.47-2.96-1.01-2.49-1.94-3.34-1.01-.92-.81-1.59-2.47-2.1-3.05-.94-6.17.27-9.21-.38,2.74-2.41,5.98-1.7,9.35-1.8,2.09,1.41,2.58,3.57,5.74,3.13l.33,1.48c6.03.17,13.73,1.22,19.66.5,2.79-.34,2.03-4.16.91-4.5-2.99.48-2.3-.64-3.43-1.59-1.41-1.18-2.38-.77-3.92-1.15-7.85-1.94-14.72-3.48-22.22-6.45-.4-.16-.21-.9-1.11-1.01-1.53-.19-6.12-.2-7.63,0-.94.12-.65.94-1.07,1.04-1.18.27-2.67-.33-3.91.55-.52.37-1.66,2.84-2.59,3.46l-.72,5.09c-.8-1.47.85-8.79.5-9.09-.12-.1-1.14.13-1.64-.01-.56-.16-.19-1.39-1.64-1.01-.19.05-.19.92-.59,1.01-.67.15-2.69.15-3.35,0-.37-.09-.29-.86-.71-.97-1.81-.5-4.2.6-4.46-2.08l-2.2.11c.34,2.59-3.86,2.07-5.78,1.88-3.03-.29-2.37-.82-4.05-2.27-.29-.25-1.06-.09-1.21-.26-.23-.25-.11-1.99-.44-2.86-.19-.51-.9-.53-1.13-1.01-1.02-2.2-1.26-4.24-1.05-6.67,1.43.64.86,2.52,1.39,3.9.91,2.34,4.01,7.41,6.3,8.34,3.2,1.3,3.46-.54,5.94-1.99l-.11-9.64c-.63-.43-1.46-.6-2.03-1.11-1.02-.91-3.71-4.22-4.28-5.19-.31-.53-.07-1.45-.37-1.89-.65-.95-7.29-.12-8.86.01-.5,1.73,1.06,1.58,1.51,2.4.37.67.79,4.35.51,4.66-2.77-.81-2.25-3.87-2.75-6.08-.38-1.68-1.68-3.11-1.76-3.38-1.4-4.86-1.89-9.58-4.23-14.12-.16-.31-1.13-.39-1.21-.87-.06-.4.61-1.57.37-1.81-.11-.11-1.19.27-1.57-.29-.91-1.36-1.71-7.48-2.02-7.74-.48-.4-3.61.57-3.86-.79.81-2.03-.22-4.84,2.43-5.1l-.03-2.75c-.23-.23-4.8.2-5.81,0-1.38-.27-1.22-1.67-2.09-1.95-.79-.26-2.36.14-2.66-.14-.16-.15.15-1.91-2.09-2.29l.51-3.9c-3.79-1.35-4.52-5.84.03-5.87.18-.16-.38-4-.54-4.67-.11-.42-.87-.37-.96-.73-.12-.51-.13-2.94.04-3.13l6.01-.3c1.18-.84.69-2.46,1.04-3.41.15-.42.77-.34.94-.76.53-1.31,0-2.91,1.84-4.17l4.12,1.65c.41,2.31,3.48,2.25,3.95,4.95,2.91.87,2.88-2.8,4.11-3.04.64-.12,3.41-.2,3.88-.06.51.15,0,1.97,1.29,1.56v.49c-1.47-.24-1.11,1.34-.93,2.46l4.43.61c.35,1.82.09,3.85.58,5.65.12.44.86.19,1.01,1.11.4,2.57-.94,2.25-1.05,2.62-.08.26,1.3,4.71,1.47,4.93.09.12,1,.73,1.85,1.77.57.7,1.6.23,1.21,1.54l-2,1.52c.37-2.59-1.03-5.85-4.02-5.03.21,1.2-1.12,4.21-2.04,4.77-2.06,1.26-8.58-2.79-9.14,3.73l-2.46.07.31,1.54c-2.74.3-1.43,1.97-2.28,3.22-.22.32-2.43.32-2.05,2.03.59,2.64,3.21-.61,3.39-.71,3.14-1.72,6.49-3.87,10.11-4.9,1.25-.36,2.84-.38,4.14-.66-.6,2.02,2.85,5.28,3.79,2.52h1c.53,1.44,1.8,1.65,3.26,1.49-.48-1.97,1.76-1.76,2.4-2.63.17-.23,2.13-4.81,2.17-5.15.15-1.46.2-4.93-.34-6.2-.31-.73-2.39-1.98-2.91-2.68-.09-.13-1.33-2.53-1.38-2.67-1.03-2.94-.41-6.63,3.1-6.38-.3-3.27,1.08-9.01-1.92-11.06-.55-.38-1.44-.16-2-.71-.69-.67-2.9-5.37-3.28-5.77-.33-.35-2.48-.7-2.79-1.25-.35-.63-.07-2.6-.52-3.76-.35-.88-1.75-.65-1.06-1.66.04-.06.72.1.94-.41.48-1.09-.08-3.58,1.94-2.52.1.05.15.69.45.87,1.23.72,2.6.64,3.88.05.87-.63.62-3.81,1.29-4.79.11-.15,2.8-1.71,3.22-1.3.29,1,1.52.92,1.71,1.12.6.6.72,3.2,2.42,3.45,3.66.53,1.91-1.82,2.87-2.47.5-.34,4.74-.81,4.98.26.12,4.79,1.01,9.72.42,14.51-.36,2.9-1.79,2.62-3.13,4.41-1.14,1.52-1.58,2.57-2.36,4.13-.15.31-.91.28-1,.7-.16.73-.15,3.18-.04,3.97.21,1.46,2.45,2.01,3.4,2.44.31.14.32,1.38,2.37.83.56-.15.1-1.01.57-1.03,2.31,2.01.91,5.38,1.27,8.23l-2.54,1.73v6.21s-3.51-.49-3.51-.49c-.52,3.81-3.26,6.86-2.54,11.1l4.16-1.55c1.78-.87,8.5-4.2,9.82-4.5.97-.22,4.44.21,4.69-.02-.51-1.47-.2-3.26-.51-4.7-.04-.17-2.29-2.36-2.36-2.51-.47-1.09-.2-2.91-.77-4.06-.36-.72-1.23-.69-1.4-1.22-.33-1.03,0-2.98-.55-4.28-.38-.91-2.4-2-1.47-4.43l1.76.5c.17,3.31,1.55,5.59,2.65,8.45.79,2.05,1.38,4.21,2.29,6.3.54,1.25,1.42,2.41,1.85,3.73l1.43-.13c.4-.81,4.14-.94,3.63-1.93-.23-.45-1.17-.61-1.52-1.14-1.87-2.85-2.65-7.58-3.67-10.83-.63-2.01-2.02-3.42-1.85-6.17.13-2.04,1.7-1.87,1.95-2.63.51-1.57-2.94-6.76-5.02-7.09-.81-3.26,1.71-3.19,1.84-6.05.06-1.22-.04-3.76-1.32-3.95.87-1.58,1.2-3.46,3.39-3.69,1.65-.18,2.79,3.24,4.69,2.92.23-.25-.21-2.87,0-3.69.14-.55,1.18-.57,1.55-1.06.67-.88.33-2.1,1.44-3.13,1.62-1.49,4.82-1.86,5.48-2.33.51-.37.8-2.75,2.77-3.55,1.39-.56,4.6-.67,5.91-.12,1.93.81,2.41,4.05,2.6,4.21.21.17,3.43.23,4.62,1.06.83.58,1.19,2.37,2.13,3.05l.75-1.51c3.25.57,5.26,3.62,6.31,6.56,1.16.3.64-1.14,1.56-1.45,2.07-.69,4.61,2.52,4.22,3.7-.17.52-1.15.58-1.35.93-.46.78-.81,2.97-1.21,4-.18.47-.93.43-.97.74-.29,2.04,1.71,2.28,1.95,3.02.71,2.17-.23,8.64-1.01,10.98-.24.72-1.3.65-1.44,1.18-.75,2.9.43,9.08-1,12.52,2.3,1.14,1.8-1.61,2.49-3.07.52-1.11,1.75-1.51,2.04-2.13.66-1.42.27-3.78.67-5.26,1.58-5.81,3.9-8.31,2.91-15.32-.17-1.22-1.04-1.89-1.07-2.98-.08-3.43,1.08-8.25,1.09-11.65,0-1.04-3.12-6.67-3.7-7.17s-2.07-.41-2.85-.71c-.03-1.37-.08-2.44-.53-3.76-.15-.44-2.95-4.95-3.18-5.15s-4.93-2.27-5.4-2.42c-3.02-.97-16.53-1.27-19.31-.22-.64.24-.54,1.2-1.2,1.43-.94.32-4.15.29-5.74.58-.18,2.68-2.15,1.81-4.21,2.63-1.05.42-.38,1.8-1.85,1.41,1.34-2.82,3.23-3.53,6.05-4.04ZM199.98,172.89c1.62.44,4.29-1.09,4.53-2.76.17-1.2-2.05-5.18-3.32-5.3-2.23-.2-2.58,2.85-2.62,4.47-.05,2.26,1.47,1.69,1.41,3.59ZM210.99,172.38c1.24-7.59-4.4-4.24-5.71.09-.53,1.76-.18,2.92,1.97,2.51.25-.05.96-3.21,3.74-2.6ZM291.13,172.6c-.64-.29-1.22-.17-1.88-.17-.88,3.74,2.17,3.48,3.87,6,1.94-.94,4.2.5,5.87-.02.63-.2,4.34-3.75,2.11-4.46l-2.77,1.51c-1-5.36-4.11-1.39-6.72-2.03-.36-.09-.36-.78-.48-.84ZM210.96,175.55c-2.46-1.37-1.61,0-2.67.94-1.77,1.56-3.65.03-5.77,1.06l-.06,1.96c1.78-1.17,3.46.2,5.31.06.67-.05,1.35-1.9,3.26-1.06l-.08-2.95ZM248.89,187.08h-11.35c-.26,0-2.95,2.77-4.68,2.12-1.44,2.05.74,4.66.67,6.72-.03.93-.73,1.74-.73,2.96s.51,3.8,1.46,4.61l-4.28,2.76c.51,3.23,2.72,4.64,5.97,3.57,1.64-2.74.23-1.55-.54-2.12-.87-.64-.53-2.23.88-1.94-.39,1.85,1.77,2.27,3.15,3.06.32.18.39.78.77.95,3.22,1.45,6.96,1.04,10.21.03.28-1.93-2.24-.41-3.83-1.47-.81-.55-2.75-2.99-2.23-4.08h-3.02c-.47-1.97,2.36-.24,3.02-1.78l-1.51-3.28c4.24,1.9,2.2-6.01,3.02-8.59-2.69-.4-1.1,3.19-4.26,3.57s-4.99,0-4.32-3.32c.79-3.93,6.2-.84,8.23-1.25.41-.08.35-.95.97-1.18.82-.3,2.53.69,2.4-1.36ZM172.38,190.94c-.39-.45-.21-1.52-.99-1.8-2.98-1.08-2.97,4.41-3.57,5.91-.89,2.22-4.99-.42-6.73.12-.49,1.84,1.3,1.49,1.8,2.99.47,1.42.32,3.66,0,5.12-.58.79-2.36-.36-1.79,2.22.49,2.23,3.09.87,3.47,3.13.16.94-2.33,1.18-1.43,3.16.6.1,1.31.11,1.84.41,1.19.68,5.11,3.19,6.14,3.4,1.27.26,4.05-.63,5.8.3.47-2.22,1.72-1.75,2.19-2.18.31-.29.31-1.32.85-1.95.75-.87,2.75-.8,2.32-1.71s-3.44-1.03-4.24-.8c-.28.08-2.11,4.55-3.82,4.07.65-2.02-1.1-2.17-1.39-2.64-.1-.17-1.11-3.52-1.14-3.71-.16-1.16.62-2.49.53-3.72l2.73-.06.31,1.49c2.93-.92,3.78,1.52,4.85,1.97,2.36.99,4.6-.59,5.17,3.34.05.49,1.08.4,1.3.3.27-.13,2.54-4.79,2.66-5.42.48-2.57-.3-4.72-.39-7.21-1.29-.07-1.9-.28-2.28,1.02h-.98s-2.05-3.57-2.05-3.57c-1.74-.3-2.86,1.95-5.67.71-1.7-1.74-3.86-3.06-5.48-4.9ZM206.32,194.36c-.76-.44-1.35-.92-2.31-.7-.08,1.63-.93,1.9-2,2.82l.54,2.13,4.97.08c.01-1.72.46-3.38-1.2-4.34ZM253.94,195.66h-2.52c1.69,3.41.84,6.53.5,10.1,4.06-.1,1.23-7.3,2.02-10.1ZM208.44,202.81c-.17-.18-1.04-.06-1.37-.36-.91-.82-.92-2.19-2.76-1.76-.47.11-.54,1.17-1.04,1.58-.8.64-1.96,0-1.81,1.23.2,1.7,1.62,1.33,2.37,1.92.4.32.5,1.1.87,1.38,2.68,2.07,4.87-2.8,3.75-4ZM316.2,212.66c-1.9-4.19-1.22-2.6-4.87-3.98-.83-.31-1.13-1.19-2.15-1.38-.65-.12-5.97-.53-6.44-.43-1.51.32-3.35,2.27-4.94,2.74-.42,1.53.46,4.75,1.52,5.92.26.29,6.07,4.23,6.46,4.29,2.28.39,7.58.25,9.58-.8,1.63-.86-.45-1.61-1.11-2.65-.54-.85-.69-2.26-1.29-2.75-.67-.56-1.94-.41-2.63-.78-.59-.32-.7-1.27-1.51-1.64-2.1-.98-5.27-.17-7.46.13l.05-1.46c2.35-.91,4.83-1.72,7.33-.62.53.23,5.25,3.87,5.71,4.4s.6,1.02.55,1.72c1.68.34,2.5-.93,1.86-2.4-.05-.12-.58-.15-.65-.31ZM344.17,209.88c-2.48-.86-8.4-4.55-10.56-1.89-1.9,2.35,1.82,2.65,1.56,4.84-1.78-.06-2.95,1.02-4.03,2.28-.02,1.37,5.66.44,6.74.82.91.32.69,1.63,1.33,2.2.58.51,2.12.48,2.77,1.26,1.42-1,.38-2.89.83-4.22.23-.68,1.32-.64,1.45-1.17.13-.49.06-3.94-.09-4.12ZM202.47,231.78c-.37,2.41.27,5.56,0,8.08l.76.76h10.6c1.02-.75,1.03-3.15.67-4.23-.09-.26-4.38-4.25-2.68-4.36,1.78-.24,4.4,3.44,5.22,4.88.64,1.13.73,2.85,1.24,3.57.19.27,4.71,3.84,5.21,4.13,1.16.68,5.65,1.12,4.18,3.56-.89,1.48-2.62-.83-2.86-.94-.42-.2-1.36.06-2.13-.29-1.68-.75-2.81-3.92-5.06-3.28v12.37l1.26.76,19.09.46c2.84-2.05,2.23-4.88,3-7.64.22-.8,1.11-1.4,1.3-2.26.55-2.49-1.1-1.66-1.79-2.31-.11-.11-1.51-2.59-1.55-2.74-.33-1.15-.02-2.5-.1-3.68-4.9,1-3.43-1.64-5.01-3.73-.39-.51-1.27-.11-1.6-.6-.41-.62-.23-1.95-.74-2.71-.37-.55-1.4-.63-1.66-1.37-.41-1.16.23-2.92-.04-3.91-.17-.61-2.13-.02-2.54-2.09-.2-1-.14-3.44,0-4.51.19-1.43,2.74-3.26-1.22-3.31-.99,1.57-4.57,1.17-6.89,1.76-6.46,1.64-15.53,6.41-16.63,13.66ZM243.34,243.14c.36-3.52,3.53-1.8,3.53-1.26v7.32h2.02c-.45-2.05.7-3.32,1.2-5.11.7-2.51,1.35-5.22,2.45-7.65,1-2.23,3.91-4.98,4.44-6.66s.61-3.08.49-4.82c-2.35-.72-3.34,1.71-5.36,1.86-1.19.09-2.92-.44-4.5-.37-4.56.22-9.06,1.52-13.04-2.05-1.54-1.38-.87-3.58-4.32-3.03l-.04-1.45h-1.51s.21,4.06.21,4.06l3.2,1.73c-2.37,4.04.21,2.89.67,3.58.4.59.43,2.21,1.12,3.33,1.09,1.76,2.7,1.83,2.83,4.75l4,.79.14,4.4c.75.47,1.64.4,2.45.58-.31,3.01.21,6.16-.73,9.14-.31,1-1.2.9-1.28,1.31-.2,1,.26,2.14-.25,3.21-.35.72-1.65.77-1.79,1.35-.27,1.09.27,2.68,0,3.85-.11.47-2.29.69-.17,3.76,1.42,2.04,2.12.35.69,4.16.74.69,6.24-.92,7.35-1.48,1.74-.87,1.9-2.23,2.96-3.61.46-.6,1.68-.82,1.8-1.33s.07-3.98-.07-4.13l-2.65-.53c-1.42.39-.51,3.1-.87,3.47l-1.49.3.03,3.26h-1.51s-.49-22.51-.49-22.51c-.45-.35-1.1-.12-1.53-.22ZM286.73,223.95c.34-2.87-1.52-3.32-4.04-3.03l1,1.76c-.81,1.33-1.8.16-3.02.25-.33.36,1.39,5.98-1.39,4.37-.09-.05-.11-.8-.45-.86-1.11-.2-3.25.85-4.64.6-.65,1.14-.61,2.25-.01,3.4,1.08.23,2.12.37,1.97-.93,2.17,2.18,3.91-.4,6.57-.24l1.21-4.85,2.81-.48ZM292.79,248.2v-7.83c0-1.34,3.71-1.8,1.72-4.76-.26-.39-1.09-.4-1.22-.9-.18-.75-.7-4.99.26-5.19,1.98-.42,1.76,3.9,2.09,4.97.13.44,1.63,2.89,1.81,2.99.61.33,1.65.02,2.42.35,1.22.52,6.16,3.7,7.05,2.81-1.16-3.15,1.77-3.12,2.03-4.8.17-1.1-2.6-1.05-3.64-1.42-1.58-.55-2.59-1.91-4.87-1.44l-.54-4.19c-3.33-.07-1.94-5.21-3.32-5.84l-4.13,4.02-3.68.02c.8,1.21.29,2.57.53,3.76,1.24,6.08.52,7.96.53,13.72,0,2.03.91,4.53.45,6.77,5.73.21-1.23,2.74-1.44,3.35-.29.84-.23,8.31-.04,9.5,1.71,2.08,1.86,7.74,4.76,7.91,3.84.22,2.81-3.82,3.51-6.14.66-2.18,3.68-6.84,4.22-8.38.15-.42,1.17-5.19,1.13-5.47-.09-.59-.22-1.03-.85-1.21l-3.73-.31c-1.24-.98-.21-2.86-1.62-3.46-2.7-1.15-1.45,1.17-3.41,1.18ZM201.45,227.99l-4.04.5c-.28.26.32,5.08-.07,6.24-.43,1.26-2.66.44-1.71,3.88.29,1.06,1.45,2.03,1.67,2.88.25.99-.08,2.09.15,2.88.46,1.6,1.42,3.19,1.77,4.86l1.73-.03.5-21.21ZM275.63,243.14h7.57c.54-1.87.48-10.29-.86-11.12-.69-.43-2.7-.55-3.37-.03-.45.35-.17,1.13-.43,1.4-.47.5-2.33.37-2.8,2.02-.25.89-.65,7.37-.11,7.72ZM337.18,252.24c-1-.24-1.11.11-1.71.55-3.97,2.96-10.44,10.12-12.9,14.24-.34.57-1.45.44-1.56,1.6-.06.67.65,3.1,1.29,3.29,1.51.54,1.47-1.37,2.11-1.52.93-.22,8.2-.69,8.65-.41,1.45.92,1.6,6.79,2.42,7.01,1.84.49,1.63-.81,2.52-1.45.62-.45,2.25-1.36,2.56-1.75.96-1.2.94-6.41.33-7.82-.33-.75-1.4-.77-1.61-1.44-.3-.96.22-2.57-.3-3.26l-1.83-.77.03-8.28ZM213.2,261.43c.15-.21,1.06-.24,1.3-.92.85-2.42-.87-5.5-3.6-4.65-.72.22-1.03,1.21-2.13,1.42-.95.19-4.59-.2-4.79,0l-.31,9.11,4.36,5.78c1.07.45,8.42.49,9.86.29,1.75-.24,4.8-1.67,6.56-2.02,1.15-.23,3.38.43,4.05-.51-.5-1.42.04-3.59-.36-4.75-.23-.68-1.31-.64-1.45-1.17-.24-.91.27-4.45.01-4.7-2.48.38-6.49-.56-8.73.11-1.35.4-2.5,3.14-4.13,3.44-1.06.19-1.03-.84-.63-1.42ZM287.63,274.06c-.21-.37-1.92-.65-2.31-1.98-.6-2.04.44-5.58-.18-7.39-.28-.82-1.6-.86-1.86-1.67-.51-1.58.38-4.21-2.45-5.12s-2.4.69-3.52,1.28c-.67.36-2.99,1.08-3.1,1.21-.71.82-.34,9.1,3.12,8.03l1.84-2.05c-.19,1-.57,3.48-.98,4.22-.34.61-1.3.18-1.47.36-.3.31.09,1.89-.07,2.65-.09.4-.93.13-1.05,1.09-.26,2.09.91,1.68,1.03,2.14.24.91-.07,1.95.36,3.08.72,1.85.74-.47.75,3.41,0,4.6,6.39.84,7.23.93.42.05,1.29,1.12,1.76.8,1.14-.76,1.46-10.05.91-11.01ZM332.59,271.48c-1.87-1.03-2.86.03-4.21.22-2.24.32-2.03.59-2.63.73-1.06.25-2.8-.37-3.71.25l-.49,1.52c1.73.96,3.88,1.35,5.51,2.57,1.32,1,1.22,2.79,3.57,2.23-.02-2.72,2.9-4.35,1.96-7.52ZM284.71,315.12v-7.32l3.51-.53-.45-7.33c-2.02-.22-6.56-.8-8.09.55-1.09.96-2.54,5.51-2.55,7.05-.01,1.87,2.24-.25,2.81.74l.24,4.58h1.51s0-4.55,0-4.55c2.4.81-.45,7.05,1.77,7.57l1.25-.76ZM297.21,305.41c-1.36-1.36-4.42.82-4.83,2.23-.51,1.74-.65,11.22,2.35,7.41,1.98-2.52-.51-4.24,1.58-5.74-.13,2.37,3.3,3.29,4.58,4.78.44.52.37,1.57.53,1.71.38.33,1.87-.11,2.61.06.45.1.63,1.09,1.17,1.44,2.16,1.44,4.68,1.68,7.26,1.59,1.16-1.13-3.06-3.2-3.84-3.71-.37-.24-.49-.95-1.04-1.24-1.61-.85-3.46-.52-5.16-.65-1.21-2.39.98-2.02,2.98-1.98v-1.51c-3.98.33-5.44-.51-7.9-3.24-.22-.25-.09-.96-.29-1.16ZM316.94,304.83c-1.33-.56-1.85,1-2.83,1.33-2,.69-4.99-.31-5.18,3.14.42.59,4.72-.85,3.27,2.03h-4.28c-1.03.92,3.22,2.91,3.4,3.19.47.72-.37,2.44,1.9.86l1.51-6.07c2.34,4.5,2.02-.52,4.79.5.79-3.03-1.86-2.76-2.58-4.98ZM321.98,315.8c-.04-1.62,1.01-6.5-1.68-6.01-.16.03-1.95,2.37-2.01,2.52-.31.78.38,3.76,1.59,4l2.09-.51ZM321.89,324.32c.31-.74.36-2.82-.06-3.43-3.65-1.86-2.72.88-3.56,2.05-.1.14-2.47,1.96-2.62,2.05-2.1,1.25-4.49-.53-5,3.51s1.99,1.39,3.06,1.49c.25.03.22.94.61,1.03,2,.49,3.71-1.23,5.75-1.23.72-.49.45-3.39.9-4.64.25-.68.88-.71.93-.82ZM275.63,327.49v7.07c2.58.79.86-2.33,2.77-2.52l2.52,3.52c3.06-1.12,1.07-4.33,2.25-6.86-.03-2.12-6.02-1.79-7.55-1.21ZM257.97,329.51h-1.51s0,37.88,0,37.88l-2.54-.84c-.54-2.28,1.65-10.77-2.15-9.68s-1.91,7.22-1.82,9.76c.04,1.05-.64,2.17-.56,3.03.1,1.03,1.28,1.37,1.51,2.54.44,2.21-.3,5.46,0,7.82-3.71.91-3.01-1.43-3.6-1.95-2.36-2.09-5.04,4.24-1.07,4.6l.9,1.89.92-.07c1.08-.79,1.67-1.7,3.14-1.92,2.06-.32,6.62.48,9.07.5.92,0,1.65.09,2.24-.78-.04-1.38-1.89-.43-3.3-1.23-.79-.44-1.83-1.83-1.78-2.79.89-3.99.14-8.6.82-12.44.11-.64.95-1.18,1.12-1.83.39-1.56.38-10.22.09-11.97-.23-1.41-1.31-1.99-1.51-3.54-.35-2.78.71-18.31.02-18.97ZM302.88,333.55v8.08h5.55s0-4.04,0-4.04l-1.93-.07-.56-2.14,3-1.58c.5-2.18-5.13-.8-6.05-.25ZM279.02,348.58c.54-1.25-.09-3.71.11-5.21.32-2.35,3.11-7.03-1.65-7.3l-2.32,1.84c-.05,1.14.45,2.74-.04,3.82-.31.69-1.29.47-1.52,1.65-.39,2.07.65,5.04-.49,7-.19.32-.96.36-1.02.6-.34,1.5.9,1.12,1.01,1.6.19.84-.92,11.28-1.22,12.34-.27.97-1.21.89-1.29,1.3-.69,3.37-.99,14.48.09,17.5.1.28,2.24,2.29,2.66,2.36,1.28.24,2.95-.17,4.3-.01.61-2.02-2.11-2.52-2.51-3.44-.54-1.24-.33-8.36,0-9.84.09-.39.79-.39.95-.76,1.06-2.33-.65-8.23,1.56-9.45v-1.02s-1.03-.5-1.03-.5l.64-.27.39-1.25-1.03-.5,1.03-.58c.33-2.74-.71-7.02.5-9.43.13-.27.8-.32.87-.47ZM314.99,342.14v21.47c0,1.97-2.65.21-1.81,2.84.32,1.01,1.94,1.33,1.86,2.92,1.58,1.14,3.78-2.79,4.16-4.07.48-1.58.43-3.3.27-4.9l-2.49-.88.47-16.54-2.45-.83ZM310.44,348.71c-1.63.93-8.39-.55-7.53,2.24.05.15,2.15,2.17,2.3,2.22,3.16,1.05,2.58-2.03,5.23-1.43v-3.03ZM310.44,354.26c-3.16,1.57-4.17,1.95-7.56.51.11,1.55-.2,3.25.02,4.77.13.89,1.12,1.49,1.01,2.51-.08.77-1.03,1.36-1.03,2.06,0,.61.83,1.24.97,2.06.35,1.96.52,4.27.54,6.28h6.06s-.72-7.61-.72-7.61c-.67-.92-3.62.12-4.22-1.73,1.84-1.39.19-3.26.48-4.45.44-1.86,3.05-1.33,3.4,0,.13.5-1.03,2.81.82,1.68l.24-6.07ZM305.29,378.9c.54-.95.3-5.16-1.22-5.4-.87-.14-5.12,3.98-5.25,4.75-.31,1.81,5.43,2.49,6.47.65ZM317.74,376.78c-1.15-1.6-2.66-3.06-4.77-2.82.23,1.46-.56,4.91.5,5.81,1.85,1.58,4.24.56,5.08-1.53.3-1.35-.57-1.13-.81-1.46ZM257.46,383.56c-7.78-1.62-6.39,6.33-5.19,11.12,1.1.68,8.11.79,8.66-.08l-.42-7.18c-1.63-.69-3.51-1.8-3.05-3.85Z" fill="#efb848"/>
    <path d="M151.51,227.23c.2-1.16,1.72-1.42,1.93-2.09.26-.84-.11-1.74.36-2.71.38-.79,4.03-3.51,5.17-2.9.11.06,1.5,1.58,1.63,1.76.62.84,1.91,3.83,2.68,4.54.25.23,1,.03,1.2.28.5.6,1.5,2.86,1.6,3.7.17,1.45.31,9.22-.52,9.72l-2.73.55c-.38.52-.37,3.1-.14,3.76s1.31.63,1.45,1.17c.25,1.02-.31,2.82.45,3.87.39.54,2.1.57,3.04,1.14.54.33,4.15,4.15,4.91,4.94,2.57,2.69,2.71,3.07,4.26,6.46,1.02,2.22,3.27,2.05,2.45,5.61-.09.37-.8.39-.95.75-1.6,3.83.93,5.2,3.18,7.75.31.35.21,1.2.39,1.37.3.3,3.38.11,4.12-.03,1.38-.27,1.3-1.3,1.7-1.39.76-.17,4.08-.17,4.85,0,.41.09.34,1.02,1.3,1.29,2.16.6,4.43.14,6.47,1.88.24.21.03.98.28,1.24s.97.03,1.22.26c.29.27.2.96.48,1.32.33.42,1.04.47,1.19.94s.45,3.18.5,3.93c.38,5.21-.29,10.8.02,16.05l4.97,4.21c-.32,5.79.65,12.46.06,18.13-.19,1.83-1.81,3.83-2.04,7.09-.57,8.27.85,16.96.02,25.23-.23,2.27-1.44,2.27-1.51,2.61-.4,1.91.05,5.99-.42,7.52-.71,2.35-.99,3.15-1.62,5.93-.09.38-.88.31-.99.69-.57,2.07,1.85,2.66,1,5.21-5.12-.11-9.88,1.47-8.58-5.56h-4.25c.32,6.96-2.85,5.49-8.37,5.56-.33-1.81.5-3.52.47-5.23-.05-3.82-1.98-8.95-2.45-13.25-.15-1.41,0-2.84-.03-4.25l1.51.52c-.58,2.06-1.14,4.2,1,5.38l.51,10.26c1.09.38,3.78-.21,4.01-1.38.36-1.83.3-9.99.06-12.03-.07-.59-2.11-2.4-2.06-3.5l2.53-.77c-1.08-3.06.76-6.13-.51-9.09h1.52s0-1.52,0-1.52l-3.02-.25.99-2.05,2.8-.2.23-6.59c-1.96-.51-.99,1.34-2.5.99-.82-2.04-5.3-1.92-5.07-5.02l-1.79.46c-1.04-2.17-4.86.35-6.24-2.88-2.19-5.13,1.25-17.52-.07-23.56,2.07-.3,1.34-.94,2.05-1.95.38-.54,1.4-.16,1.02-1.61-.07-.26-.94,0-1.06-.99-.5-3.99,1.24-15.26-1.12-17.81-.94-1.01-3.43-2.46-4.42-4.04-.38-.62-.32-1.44-.53-2.12-.47-.42-5.74.3-7.17-.14-1.06-.33-1.05-1.54-1.71-1.96-.54-.35-1.5-.22-2.03-.62-1.19-.89-2.37-4.54-3.68-5.16l1.03-.58.5-11.29,1.47.75c-.14.55-.97,1.66-.97,2.03v8.59c0,.2,1.24,3.14,1.54,3.51.53.64,5,3.84,5.66,3.75,3.51-.49,1.36-5.16,2.86-7.29,1.6-2.27,6.65-.12,6.62-2.49-.01-.94-1.46-1.67-1.93-2.63-.5-1.02-.4-2.73-1.11-3.44-.64-.64-2.01-.48-2.4-.88-1.95-2-4.03-3.45-5.71-5.13-.86-.87-.76-2.68-2.25-2.84-3.04-.33-.9,3.1-1.27,3.53l-1.49.54c.15-1.76,1-3.99.41-5.74-.23-.68-1.19-.72-1.46-1.16-.12-.19-1.43-2.87-1.47-3.04-.17-.77.23-2.26-.09-2.61-.35-.38-2.63-.8-3.35-2.95-.9-2.68,1.32-1.2,1.87-1.72.16-.15-.08-.98.14-1.31.48-.72,3.79-.8,4.72-.67,1.29.18,3.1,2.04,3.68.2,1.03-3.3-.55-6.04-2.44-8.52-.36-.48-1.39-.58-1.52-1.09-.25-1,.29-4.89,0-5.2-5.16,1.02-4.61,7.18-6.44,10.98l-.62,5.18c.36-2.98-.5-7.03,0-9.85ZM171.69,275.47c-1.11-3.43,2.8-2.52,2.54-4.78-1.42-3.78-5.96-3.4-6.09.42l.96.36.06.96c-4.02,2.06-.16,3.23,2.53,3.04ZM196.41,278c-2.8.35-4.38-1.4-7.29-.99-1.02.15-5.94,1.78-6.79,2.29-1.22.74-4.44,5.64-4.62,7-.26,1.93-.18,13.55.4,14.81.42.91,1.8,1.85,2.81,1.58.93-.25.98-1.36,1.52-1.83.47-.4,1.98.46,1.34-1.82-.11-.38-.92-.11-1.04-1.05s-.15-4.65.05-5.49c.09-.36.85-.31.96-.73.56-2.14.41-4.28,2.2-6.04.81-.79,2.24-1.32,3.38-1.16l-1.5,3.8,1.5.25-.5,2.51,1.97-.06.8-1.45-.25,1.51c1.55.43,1.31-.58,1.7-.83.82-.52,1.68.4,1.33-1.44-2.18-.63-1.61-1.43-2.13-2.12-.65-.87-2.87.02-2.41-1.66,3.01-.64,5.19-.66,8.07.5-.08-3.25-3.27-3.58-1.51-7.57ZM194.9,293.65h-8.58l.5,9.6-1.27-1.53c-5.75,3.23-10.7-.04-9.34,9.32l5.56-.21.06,1.43,2.26.55c.77,1-1.67,4.93,1.72,4.08.45,1.28-.77.8-.98,1.37-.26.69-.08,2.04-.46,2.88,1.7,2.31,3.12-.16,3.31-.2.96-.22,2.18.1,3.19,0l.03-6.79c-1.85-.24-2.77-2.57-4.11-3.51-.95-.67-3.18-.42-2.48-2.07.32-.76,1.43-.9,2.18-.78,1.58,1.36,2.95,4.47,5.13,4.61,2.7.18,1.73-1.13,2.44-1.9.85-.93,2.45-.9,1.83-3.16-2.94-1.53-6.63,0-8.54-2.82.48-2.34,2.21.21,2.36.25.95.22,2.18-.09,3.19,0v-1.51s-1.96-.05-1.96-.05c-.69-.42.16-3.39.57-3.87s1.56-.34,2.12-1.16c.3-.44,1.58-4.22,1.28-4.52ZM180.26,323.96c-.54-.55,2.84-8.37-3.68-6.57-1.49.41-1.71,6.03-1.37,7.25.13.48.98.29,1.01.34.2.26-1.99,1.48-.49,3.26.95,1.13,4.3,1.38,5.81,1.33.92-.03.64-.93,1.09-1.05,1.78-.46,3.81-1.48,4.03-1.53.88-.19,4,.19,4.19,0,.63-.84-.93-4.47-1.3-4.58-.47-.14-2.93-.07-3.43.11-.68.23-.63,1.31-1.17,1.45-1.21.31-3.32-.23-4.7-.01ZM204.99,317.9c-4.11-1.64-2.43,3.69-3.03,6.06-5.33-.64-3.94,3.06-1.2,5.59l4.23-2.3v-9.34ZM195.86,335.11l-4.49.47-.51,7.57c4.85,1.2,6.49-4.26,5-8.04ZM194.39,364.87v-7.07l-3.2.08-.83.68v13.89l9.59.51c-.23-3.15-.73-6.61.02-9.75.09-.38.83-.31.95-.74.6-2.08.1-4.14.55-6.18l-2-.05-.08-1.39-1.96-.08c-.34,4.61-1.33,8.51,0,13.13-2.49.23-.69-2.73-1-3.03h-2.02Z" fill="#efb848"/>
    <path d="M344.76,227.99c-2.49-.68-2.42.84-3.32,1.49-.55.4-1.33.44-1.58.7-.44.45-1.38,3.99-2.67,3.11.37-.6.34-2.41.63-2.69.22-.21,1.03.03,1.26-.18.44-.39.19-1.82.76-2.31.66-.57,3.55-1.18,4.54-1.03,2.89.43,2.08,1.79,2.94,3.55.74,1.5.86,1.62,1.52,3.54.15.43.9.24,1.01,1.12.28,2.28-.57,4.39-3.07,4.32,0-1.32-.48-3-1.04-4.17-.26-.56-.99-.32-.99-.38v-7.07Z" fill="#efb848"/>
    <path d="M285.77,202.19l1.47.29-1.46.33-.06,1.44-3.53-.5c-.56,2.2,2.1,1.61,3.02,3.29-.41,2.24-2.86-.44-3.48-1.09s-.4-1.89-1.56-1.7v-.49c3.12-.38-.59-4.08-.45-4.82.81-1.29,2.41-.51,3.63-.75.2-.04,1.55-2.06,2.37-2.01-.84,2.16-.11,3.83.05,6.02Z" fill="#efb848"/>
    <path d="M217.1,163.85s.69.17,1-.36c.62-1.07.45-1.46,1.48-2.98.58-.86.47-2.45,1.56-1.45.68,1.91-2.47,4.38-2.54,4.64-.31,1.2.29,3.06,0,4.35-.1.42-1.67.36-.88,1.78l.89.58c-2.84.66.01,2.12.03,2.3.12,1.07-1.21,1.92-1.1,3.51.18,2.59.69.69.08,4.07-.53,2.99.88,2.68.98,3.08.5,1.86-.9,1.65-.99,2.04-.69,2.95.91,3.2.98,3.54.23,1.01-.12,2.32.02,3.4l-1.52.3v-28.79Z" fill="#efb848"/>
    <path d="M212.05,313.35c1.01,3.08-.01,6.97.53,9.83.2,1.06,1.16,1.66,1.39,2.65.44,1.88-.24,4.21.09,5.98.22,1.18,1.26.93,1.63,1.97s.02,4.02.39,5.33c-3.84-1.21-2.16-4.99-2.66-8.21-.27-1.75-1.31-2.01-1.36-2.24-.99-4.6.09-9.98-.99-14.59l.97-.72Z" fill="#efb848"/>
    <path d="M180.77,333.05c-.57,5.26-.81,11.12-.53,16.44.09,1.71,1.61,3.25.03,3.76.17-.92-.97-1.05-1.18-1.62-.53-1.48-.62-17.33-.11-18.08l1.77-.49Z" fill="#efb848"/>
    <path d="M221.13,369.91c-2.37.02-.69-3.63-1.06-4.73-.22-.68-1.34-.64-1.48-1.17-.63-2.51.06-7.9-.5-10.41-.09-.4-1.13-.32-1.39-1.7-.38-2.04-.07-4.57-.61-6.73,2.91,1.24,1.3,4.23,1.6,5.69.48,2.35.64,2.06.93,5.1.14,1.49,1.23,2.43,1.47,3.62.63,3.18.1,7.13,1.03,10.32Z" fill="#efb848"/>
    <path d="M221.13,338.6c-.62.82-.91,0-1.01-.75-.32-2.49.38-5.63-.02-8.06-.21-1.28-1.25-1.98-1.35-2.62-.15-.95.24-6.23.35-7.53.08-.9-.16-1.63.78-2.24.92.61.71,1.34.78,2.24.45,6.08.16,12.82.48,18.96Z" fill="#efb848"/>
    <path d="M218.61,299.21l.25,17.69c-1.33.03-.54-11.03-.72-12.41-.12-.92-.88-.62-1.02-1.09-.4-1.29-.82-5.04,1.48-4.19Z" fill="#efb848"/>
    <path d="M214.07,291.13c-.18,1.66.28,3.7-.02,5.28-.2,1.06-1.17,1.67-1.39,2.65-.1.42.02,7.45-1.61,5.7,1.17-3.57.32-8.7,1.03-12.26.02-.12,1.6-1.89,2-1.37Z" fill="#efb848"/>
    <path d="M337.19,234.56v7.58c-2.89-.09-.24-3.84-2.53-4.29,1.94-.27.36-3.52,2.53-3.28Z" fill="#efb848"/>
    <path d="M228.62,362.93c.44.65-.11,4.05.05,5.25.08.64,1.96,1.72,1.05,3.75-2.57.19-.38-4.41-2.52-4.05v-.49c2.94-.55-.88-3.17,0-5.06l1.42.59Z" fill="#efb848"/>
    <path d="M225.67,354.26c.56,1.41.21,3.49.5,4.7.14.57,1.07.54,1.27.84.94,1.41-.73,3.25-1.73.24-.58-1.74-.2-3.87-1.04-5.53l.99-.24Z" fill="#efb848"/>
    <path d="M216.09,284.06l-.08,4.2-1.42.84c-.19-.21-.4-5.63,1.51-5.05Z" fill="#efb848"/>
    <path d="M188.85,295.67l2.3.47-.26,2.34c-2.98.89-2.32-.74-2.04-2.81Z" fill="#efb848"/>
  </g>
  <g>
    <path d="M430.03,194.66c1.67,1.93-5.96,7.77-5.04,8.58l7.06-1.51-.05,1.96-11.02,2.56c-2.03-1.9,5.97-7.69,5.02-8.57-2.17.1-4.14,1.42-6.31,1.52-1.02.05-1.06-.61-.75-1.27.44-.94,9.43-2.59,11.09-3.28Z" fill="#efb848"/>
    <path d="M427.5,217.89l-.5-3.02h2.01s.3,4.57.3,4.57l-4.1.77c-5.25-4.17-2.81-12.34,4.44-11.3,4.88.7,5.9,6.18,3.16,9.49-.39.79-1.17.14-1.26-.26-.43-1.76,3.13-4.69-.83-6.74-5.37-2.78-10.15,5.91-3.21,6.5Z" fill="#efb848"/>
    <path d="M433.56,233.04c-1.24-2.67,1.78-2.46.78-5.58-1.9-5.96-13.25.43-6.09,4.58,1.55.35.39-2.68.76-3.04h1.51s.51,5.06.51,5.06l-4.97-.08c-3.33-5-1.4-11.3,5.18-10.99,4.88.23,7.28,8.51,2.31,10.06Z" fill="#efb848"/>
    <polygon points="423.97 176.98 426.98 185.53 425.5 186.07 424.47 182.53 414.9 186.07 414.38 184.06 423.47 181.01 422.47 177.76 423.97 176.98" fill="#efb848"/>
    <path d="M436.51,237.67l.58,1.94-11.27.55c-2.38-2.41.98-2.41,2.95-2.56,2.54-.19,5.19.05,7.73.07Z" fill="#efb848"/>
    <polygon points="428.52 190.61 417.68 194.16 416.9 192.14 428 188.59 428.52 190.61" fill="#efb848"/>
  </g>
</svg>