<?xml version="1.0" encoding="UTF-8"?>
<svg id="Layer_1" data-name="Layer 1" xmlns="http://www.w3.org/2000/svg" viewBox="0 0 484.51 483.38">
  <defs>
    <style>
      .cls-1 {
        fill: #efb846;
      }
    </style>
  </defs>
  <path class="cls-1" d="M220.88.65c206.56-14.43,339.29,214.86,216.4,383.39-118.18,162.08-371.29,117.68-427.63-74.12C-32.79,165.4,69.58,11.22,220.88.65ZM224.79,8.46C58.24,19.01-43.49,202.88,35.02,350.97c84.6,159.57,310.81,167.05,405.8,13.18C541.22,201.55,414-3.53,224.79,8.46Z"/>
  <path class="cls-1" d="M227.79,78.52c139.83-9.77,229.68,145.45,146.49,259.53-80,109.72-251.34,79.66-289.48-50.17-28.73-97.83,40.57-202.2,142.98-209.36ZM230.43,83.81c-112.74,7.14-181.6,131.61-128.46,231.86,57.27,108.02,210.4,113.08,274.7,8.92,67.96-110.07-18.16-248.9-146.25-240.78Z"/>
  <path class="cls-1" d="M422.26,215.2c1.63,1.02,2.2,1.73,4.32,2.01,2.66.35,24.78-1.56,26.01-2.42,1.32-.92.02-3.69,1.87-3.49,1.15,15,8.55,38.3-15.18,36.17-17.05-1.53-15.8-19.43-17.03-32.27ZM453.49,222.05l-28.26,1.98c-2.4,24.49,35.42,22.65,28.26-1.98Z"/>
  <path class="cls-1" d="M413.2,121.2c-4.15,4.38-10.7-.35-11.46.26,4.3,6.67.52,13.16-7.32,13.16s-13.04-9.53-17.09-15.12c9.13-2.58,16.58-11.64,23.96-17.57l-1.5-3.44c-.16-.72,1.02-.67,1.45-.47.89.4,11.55,13.81,12.12,15.22.98,2.43,1.94,5.74-.16,7.96ZM405.33,107.93l-8.45,6.2c2.92,3.06,4.1,5.45,8.82,3.96,6.76-2.13,3.34-10.48-.36-10.17ZM395.41,115.66l-11.17,9.35c5.53,11.68,21.38-.38,11.17-9.35Z"/>
  <path class="cls-1" d="M300.9,36.73c10.1-1.64,23.24,5.19,22.65,16.72-.73,14.32-14.3,21.17-26.96,15.44-15.16-6.86-9.56-29.91,4.31-32.16ZM303.81,39.63c-9.67,2.19-14.44,25.5-2.67,28.63,16.77,4.47,23.31-33.31,2.67-28.63Z"/>
  <path class="cls-1" d="M229.63,26.99c14.75-2.13,23.56,6.62,20.52,21.49-3.09,15.12-28.36,16.76-33.21,3.38-3.97-10.95.27-23.08,12.69-24.87ZM231.6,28.86c-14.06,1.56-11.77,30.62,2.58,30.04,13.51-.55,13.37-31.81-2.58-30.04Z"/>
  <path class="cls-1" d="M175.18,71.64c-2.62-.11-6.26,3.55-8.29,3.55-2.53,0-18.8-8.64-20.02-7.44.67,2.55,3.62,9.28,5.37,10.73,2.2,1.82,4.85-.08,5.36,1.95l-13.66,5.86c.88-2.12,3.21-2.18,2.54-4.87-.43-1.77-10.8-21.56-11.86-22.49-1.46-1.27-2.11-.72-3.86.04l-.5-1.95,12.68-5.87c.51,1.78-1.41,2.34-1.78,3.66-.77,2.71,4.8,12.66,5.69,11.96,1.21-6.7,6.1-13.6,4.98-20.41l7.71-4c.04,2.56-2.49,3.4-3.65,5.62-.9,1.71-5.14,13.25-4.71,13.95l24,9.72Z"/>
  <path class="cls-1" d="M204.48,29.67l-3.6,3.34,7.5,29.85-4.84-.52-26.41-18.02,6.36,21.5,4.39,1.43-10.74,2.44c-.03-1.68,2.67-1.29,3.41-2.85.61-1.3-6.11-26.79-7.88-27.3-1.37-.4-3.96,2.7-3.35-1.08,3.18.15,6.68-2.46,9.79-1.58,2.22.63,23.48,18.38,24.38,17.19l-4.97-20.41c-1.15-.99-5.72,1.61-4.79-2.05l10.75-1.95Z"/>
  <path class="cls-1" d="M429.09,201.52c.81.64,18.91-4.93,19.91-5.74,1.21-.99.5-2.69.61-4.02,1.05-1.32,3.73,8.54,3.89,9.76l-3.52-2.85-29.67,7.74c-.17-1.71-.09-3.2.53-4.83,1.19-3.16,18.41-25.06,17.04-26.41-3.52,1.55-19.66,4.49-21.01,6.82-.66,1.14-.46,2.64-.48,3.92-2.8-.11-4.51-13.37-1.95-10.74l1.54,3.83c5.57-1.55,11.28-2.8,16.79-4.55,1.49-.47,9.58-2.89,9.86-3.32.74-1.17-.89-3.96,1.1-3.76.02,2.38,3,6.81,2.4,8.8-.68,2.24-18.24,24.41-17.04,25.36Z"/>
  <path class="cls-1" d="M74.59,312.86c.55,1.83.78,2.71.36,4.64-.95,4.39-13.11,28.17-12.06,29.53l20.36-11.32-.83-3.33c2.28-.5,1.57.29,2.19,1.25,1.31,2.04,4.96,8.21,1.74,8.51l-1.58-2.89c-1.44-.44-24.2,10.9-24.66,12.33s.39,3.45-.64,4.23l-4.24-9.04,11.55-27.08c-.69-.69-16.94,7.55-17.59,8.28-1.45,1.64-.97,3.47-.97,5.38l-4.86-9.76c.46-.54,2.16,2.12,2.89,2.44,3.12,1.37,26.6-14.47,28.35-13.18Z"/>
  <path class="cls-1" d="M419.32,290.39c0,1.25-.17,2.82.48,3.91.69,1.17,24,10.07,25.31,9.71,1.07-.29,1.96-4.75,3.51-2.87.32.39-2.88,8.44-3.94,9.23l-28.28,9.33c.1,1.35,1.43,1.55,2.39,1.99,2.57,1.18,15.83,6.33,17.51,5.75s.89-3.05,2.55-2.87l-3.41,9.76-2.03-4.8-26.78-9.85,1.65-3.96,30.58-9.71c.45-2.54-.36-1.51-1.39-2.03-2.55-1.29-17.9-7.17-19.5-6.68-1.08.33-2,4.72-3.52,2.86-.28-.34,2.38-7.39,2.83-8.39.52-1.16-.46-1.75,2.04-1.38Z"/>
  <path class="cls-1" d="M406.63,366.55l.5-1.95c4.68,3.4,8.86.36,11.66-3.94,10.33-15.88-15.78-29.81-24.86-16.07-5.04,7.63,3.47,12.27,8.78,6.35l-5.86,11.72c-2.87.73-1.42-1.73-2.92-3.38s-5.63-2.14-5.89-4.92c-.16-1.66,1.96-7.15,2.78-8.98,4.45-9.91,13.41-15.54,24.01-10.93,17.27,7.5,9.77,28.05-2.69,35.96l-5.49-3.86Z"/>
  <path class="cls-1" d="M358.78,72.63c3.59-9.73-8.97-16.33-17.34-12.93-11.7,4.75-12.01,27.68,2.4,28.41,1.53.08,5-5.31,4.94-6.21-.1-1.39-4.32-2.95-3.67-5.36l11.71,5.87c.79,3.1-1.78,1.11-3,2.55-.93,1.11-2.48,6.58-4.26,6.88-14.22-1.75-29.16-12.26-20.62-28.05,6.17-11.41,17.92-10.31,27.59-4.05,6.56,4.25,9.54,7.32,2.26,12.89Z"/>
  <path class="cls-1" d="M456.42,258.17l-1.95,14.65c-3.66.99-1.12-3.92-2-4.84-10.17-1.15-33.82-9.68-28.06,10,1.39,4.76,23.55,8.33,25.26,7.12,1.41-1-.22-4.4,2.85-3.49l-1.96,10.73c-1.99-.66-.3-2.52-3.16-4.14-9.2-5.21-29.11,1.32-26.85-17.57,2.38-19.88,19.41-9.65,32.54-8.88l3.34-3.58Z"/>
  <path class="cls-1" d="M287.79,421.56c2.82-3.04,9.02-4.08,12.76-2.12,7.8,4.08,15.4,35.81-3.71,33.04-9.17-1.33-14.71-24.8-9.05-30.91ZM292.04,421.4c-5.91,1.96,1.72,21.95,4.38,25.59,1.64,2.24,5.16,5.03,7.19,1.63,2.44-4.1-3.82-25.79-7.98-27.22-1.17-.3-2.43-.38-3.58,0Z"/>
  <path class="cls-1" d="M46.27,155.64l-.95,3.85c11.15,5.93,30.09,4.7,25.67,22.33-5.53,22.04-24.59,1.82-34.83,4.06-1.03.22.04,2.92-2.58,1.97l3.91-13.67c2.97,1.09.12,3.55,2.95,5.3,1.72,1.07,16.08,5.87,18.28,6.19,9.5,1.37,13.31-11.96,6.46-16.25-1.79-1.12-17.72-6.71-19.63-6.81-2.63-.13-1.16,3.66-4.16,2.76-.28-.32,1.96-6.7,2.48-7.81.68-1.46-.15-2.42,2.4-1.94Z"/>
  <path class="cls-1" d="M124.4,69.69c-2.23.37-2.45-2.28-4.91-1.59-.91.26-7.69,5.5-7.69,5.99l7.33,9.25c3.53-2.42,8.4-3.97,5.27-8.74,1.33-1.15,10.27,9.88,4.89,7.26-4.73-2.29-5.34.87-8.75,3.96l6.92,9.15c2.38,1.38,14.61-7.62,8.66-11.58,1.4-1.38,5.38,4.77,4.96,6.24l-17.65,13.28c.14-1.66-.12-2.99-.91-4.47-1.35-2.54-14.69-19.41-16.4-19.81-1.47-.35-3.25,1.62-4.18.37l19.05-15.13,3.41,5.84Z"/>
  <path class="cls-1" d="M431.9,141.08c.14.09.91,2.23.59,2.83l-21.95,28.31-4.89-12.69c1.92.81.33,3.32,3.89,1.45,8.55-4.46-.42-19.54-8.65-14.02l-1.1,4.74-3.91-9.76c.34-.42,1.75,1.53,2.64,1.73,6.36,1.41,30.67-4.29,33.37-2.61ZM424.2,143.92c-3.58-.05-7.73.3-11.23,1-1.21.24-1.74-.72-1.48,1.43l4.41,7.31,8.3-9.74Z"/>
  <path class="cls-1" d="M60.93,307c-.73-3.3,3.29-1.59,4.65-3.16,4.95-5.71-2.61-19.1-10.61-12.06-3.86,5.02,4.53,18.52-8.18,19.2-11.15.6-12.62-9.58-12.22-18.61l6.82-.98c.79,3.1-2.54,1.8-3.66,3.16-2.97,3.63.3,13.43,6.84,12.3,7.47-1.29.89-14.53,5.15-19.35,4.97-5.61,14.85-1.72,17.78,4.63,3.78,8.19,4.47,15.39-6.57,14.87Z"/>
  <path class="cls-1" d="M213.27,458.36c-.69-3.52,4.02-1.19,6.81-2.45,3.27-1.48,8.11-9.53,6.37-13.16-13.83,12.6-18.1-13.77-7.38-17.14,23.91-7.52,16.61,38.37-5.8,32.76ZM221.76,427.28c-4.54,1.38-5.61,15.68,2.68,14.51,5.64-.8,5.38-16.96-2.68-14.51Z"/>
  <path class="cls-1" d="M257.21,453.48l15.63-.97.05,4.28-21.54,2.55c1.94-9.18,13.18-13.25,11.77-23.96-.7-5.27-6.96-7.01-9.9-2.96-1.48,2.04.32,5.07-2.85,4.46-4.36-13.1,16.77-16.04,18.49-5.31,1.62,10.11-6.73,14.51-11.66,21.91Z"/>
  <path class="cls-1" d="M100.95,90.2l-4.25-2.86-6.46,6.28,19.54,18.61,4.85-1.51c-2.17,3.14-5.23,5.56-7.84,8.31-.94.99-.88,3.96-2.92,1.92.37-1.16,1.15-2.46.85-3.7-.68-2.81-16.37-15.47-18.9-19.22l-6.28,6.46c-.39,2.2,4.67,3.12,1.39,5.22l-5.35-5.35,20.98-20.99,4.38,6.83Z"/>
  <path class="cls-1" d="M68.73,125.38v1.93c-5.19-3.1-7.72,2.18-8.72,6.75,7,2.13,15.86,10.77,22.4,12.41,2.53.63,2.61-1.9,4.88-1.57l-7.33,12.68.43-4.76-23.88-13.69-4.37,8.16,2.92,3.45-6.81-3.41,14.61-24.46,5.87,2.5Z"/>
  <path class="cls-1" d="M38.46,197.64c-.06,2.02-2.85.15-4.41,1.93-.99,1.13-2.06,8.21-1.44,8.8,6.49-.67,21.42,4.53,26.75,2.8,1.84-.6.69-3.62,3.52-2.79l-1.95,13.67c-3.44.97-1.22-3.02-1.99-3.87l-26.69-4.02-1.59,9.84c.63.63,4.86-1.53,3.91,1.94l-6.41-.9,3.53-28.35,6.79.95Z"/>
  <path class="cls-1" d="M34.55,253.29c.77,3.58-2.79.84-4.01,2.52-1.67,2.29.53,6.45.12,9.18l26.69-3.08,2.59-4.72,1.96,14.64-3.53-3.84-25.12,3.02c-2.62.68-1.31,6.36-.46,7.96,1.68,3.15,5.28-.08,4.69,3.6l-6.82.98-3.92-29.29,7.81-.98Z"/>
  <path class="cls-1" d="M272.83,29.67c.13,1.71-2.13.7-3.44,1.91-2.83,2.62-2.63,22.48-4.37,27.37l12.06,1.02,3.57-4.92-.97,7.81-23.43-2.95c-.16-1.66,2.13-.76,2.78-2.57.99-2.77,2.98-19.7,3.11-23.34.23-6.3-3.69-2.2-3.93-6.3l14.64,1.96Z"/>
  <path class="cls-1" d="M195.69,419.31l-8.86,30.64,4.96,3.52c-4.05-1.56-13.41-2.57-16.61-4.37-.47-.26-1.25-1.26-.97-1.47l6.74-.11,6.95-24.79c-1.72-2.28-8.51,2.83-8.79-.98,4.5-2.92,11.3-.8,16.59-2.45Z"/>
  <path class="cls-1" d="M385.13,83.37l-3.91-1.51c-1.36.62-17.08,19.38-17.43,20.79-.54,2.24,2.27,3.7,1.82,4.14l-11.71-7.82.49-1.95c1.16.37,2.46,1.15,3.7.85,1.99-.48,17.35-18.72,17.27-20.88-.06-1.56-1.61-2.1-1.94-3.38,1.44-1.09,8.78,5.43,10.24,6.84.96.93,1.85,1.28,1.47,2.91Z"/>
  <path class="cls-1" d="M92.16,344.12l6.84,12.69c-1.97-1.13-2.51-2.44-5.11-1.79-1.23.31-20.13,13.43-20.82,14.5-1.2,1.87,1.34,3.52.06,4.86l-8.31-11.7c1.88-.54,2.29,1.78,3.94,1.52,2.12-.33,21.97-14.53,22.3-15.87.29-1.21-.5-2.56-.87-3.71l1.95-.49Z"/>
  <path class="cls-1" d="M26.74,231.81l3.53,3.79,26.13.97,3.53-3.78-.98,14.64c-1.78.14-.53-2.13-1.95-3.41-.23-.2-3.23-1.47-3.42-1.47h-24.9c-.24,0,.22,3.96-1.95,3.91v-14.65Z"/>
  <path class="cls-1" d="M114.35,386.32c13.06-2.98,14.38,13.3,4.96,15.77-10.83,2.83-14.29-13.64-4.96-15.77Z"/>
  <path class="cls-1" d="M363.38,386.32c13.63-3.1,14.15,14.37,4.24,15.98-10.13,1.65-13.46-13.88-4.24-15.98Z"/>
  <path class="cls-1" d="M207.41,162.47c2.53.2,1.63.16,1.92-1.47,4.03-22.41,13.71-24.87,33.56-32.5,15.98,6.08,33.44,13.85,33.01,33.83l9.58,1.06c-.76-4.16,2.7-4.93,3.89-8.12l-16.52-19.66,8.3-7.15,7.3,5.68c3.12-6.58,2.39-12.92.02-19.52,16.6,1.36,30.53,15.94,26.87,33.22l-11.83-3.83c-3.95,1.03-10.95-.25-4.8,4.61,8.36-6.79,5.94.09,8.44,2.99.18.21,3.18-.98,5.33,1.03,1.24,1.16.98,3,1.67,3.69.51.51,1.96.37,2.49.87,2.12,2.03,8.61,8.24,8.97,10.69.93,6.32-8.4,14.95-13.7,17.53l2.95,2.87c-2.23,6.48-7.01,12.1-12.71,15.68,18.87,18.33,26.14,54.35,9.78,76.18,25,10.38,21.52,51.62-7.4,52.28-12.49.28-26.75-9.47-38.51-5.4-4.66,1.61-7.42,6.07-13.1,5.35-3.76-.48-9.79-6.75-10.35-10.72l-6.34,7.8c-10.54,7.82-12.8-1.25-20.45-3.95-11.41-4.02-25.29,7.73-39.09,6.87-27.75-1.73-29.67-42.92-5.41-51.25-3.35-4.74-6.24-10.19-7.52-15.9-5.5-24.57,1.15-45.13,19.24-62.23-3.41-2.15-15.71-13.17-13.21-17.08.84-1.31,7.75-4.67,7.3-7.2-8.28-8.31-11.47-21.59-4.82-31.86-5.12.72-8.2-3.83-3.91-7.34,8.04-3.24,4.76,5.38,6.49,6.4l21.13.08,2.67,3.78c3.02-2.51,5.75-3.46,9.75-2.92.49.35-.98,1.25-.98,1.45v14.16ZM310.91,140.98c.48-7.51-7.31-16.54-14.18-18.53-2.47-.71-1.19,5.03-1.67,7.07-1.22,5.26-4.02,8.99-8.07,12.42-.73-.02-4.43-7.63-7.32-6.81l13.18,17.55c2.23-1.72,1.05-1.42.11-3.01-1.06-1.78-4.53-4.67-3.4-6.62,6.72-3.64,14.06-5.64,21.35-2.07ZM239.63,156.12c.88-6.01-.64-13.79,0-20.02-9.29,5.71-10.5,16.31-10.75,26.37,5.65.54,9.83-.06,10.75-6.35ZM245.49,136.1v16.11c0,.33,1.2,5.72,1.42,6.39,1.56,4.61,5.17,4.06,9.32,3.87.38-9.89-1.02-21.54-10.75-26.37ZM226.94,141.97c-9.69,2.77-10.3,12.09-11.72,20.49h7.82c-.36-7.26-.16-14.18,3.9-20.49ZM269.91,162.47c.28-8.41-2.73-18.22-11.72-20.5,5.2,5.91,3.36,13.32,4.93,20.45l6.79.06ZM182.99,150.75h-2.92v8.8h2.92v-8.8ZM186.91,159.54c4.28.65,3.54-8.34,1.44-8.78-3.59-.76-2.38,6.88-1.44,8.78ZM195.68,150.75h-2.92c.25,2.89-1.09,6.62,1.48,8.78,3.14-.2.73-6.89,1.45-8.78ZM300.88,166.65c-.92-.93-4.78-.56-4.39-4.52.3-3.07,6.02-5.69,5.64-9.42-3.34,3.46-11.94,8.54-10.33,13.71.56,1.79,10.56,12.39,12.33,13.1,3.08,1.24,5.73.41,8.74-.45-1.16-2.04-4.1-2.49-5.9-4.37-1.34-1.4-4.88-6.82-6.09-8.04ZM174.28,163.54c-1.08,1.5,4.42,12.03,7.1,11.54,6.1-5.17,12.03-9.9,19.72-12.57l.44-8.83c-2.86,1.02-2.37,4.62-3.48,6.76-2.43,4.67-4.15,1.42-6.77,1.46-2.82.05-7.39,1.17-9.92,1.38-.72.06-4.97-2.66-7.09.26ZM309.94,155.64c-1.26-1.16-9.41,4.09-8.78,6.83.98.95,10.2-5.52,8.78-6.83ZM313.85,159.54l-8.76,6.34c1.53,2.23,2.15.9,3.79-.1,1.22-.74,6.69-4.32,4.98-6.24ZM317.75,164.43c-1-1.08-8.43,4.34-7.8,6.83.81.78,9.89-4.56,7.8-6.83ZM212.29,190.78c-3.77-6.07-2.75-13.11-3.07-19.87-1.47-4.47-12.35.49-15.19,2.12-6.83,3.92-11.66,11.2-18.93,14.44-.62,4.03,9.49,11.67,12.45,11.9,2.03.16,19.42-10.54,24.73-8.58ZM234.26,169.31c-5.56-.92-13.22.67-19.04,0-.7,8.57.65,16.92,5.86,23.92,2.53,3.41,10.15,8.61,11.28,12.15,3.08,9.61-2.17,21.04,2.95,30.25,5.23,9.41,22.86,10.3,31.21,14.69,5.56,2.92,6.41,6.92,15.1,4.91-.19-18.97-27.39-9.29-33.43-22.72-2.78-6.17-1.94-20.53,1.33-26.46,3-5.43,12.11-10.16,16-15.25,5.05-6.6,4.56-13.56,4.37-21.51h-19.04c-3.37,0-7.13,4.62-9.27,6.83.68-3.57-4.54-6.37-7.33-6.83ZM307.69,193.42c.61-.7,2.28-3.91,1.85-4.61-5.13-2.89-10.1-6.1-14.7-9.77-6.05-4.82-8.41-11.86-18.1-9.74.3,7.25-.74,14.56-2.93,21.48,3.65.53,7.56,1.83,10.99,3.19,2.34.93,10.98,5.3,12.13,5.4,1.75.15,9.52-4.52,10.76-5.94ZM198.62,223.02v23.44l6.84-.98v20.51c7.84-9.52,17.89-16.56,28.3-22.95-6.46-7.37-5.7-18.56-5.85-27.83l-6.48,5.76c-14-5.21-5.44-9.79-1.48-19.13-3.61-8.28-9.09-5.83-16.24-3.51-29,9.39-42.53,40.74-32.45,69.14.52,1.46,1.36,4.89,2.93,5.35,2.1-7-4.03-18.86,6.74-19.63l.1-6.74h12.71c-.05-5.05.15-10.93,1.22-15.86.45-2.06,1.8-6.37,3.66-7.57ZM266.99,217.15c2.32,1.75,6.99-16.05,6.85-18.07-.08-1.16-.49-1.94-1.63-2.35-3.88-1.24-8.59,4.53-10.76,7.22l5.54,13.21ZM278.7,198.6c-.59,8.35-3.94,16.07-8.47,22.96l3.1,4.37c3.3-4.34,11.89-21.89,8.81-26.37-.91-1.33-2.05-.98-3.43-.96ZM285.53,249.38v-25.39c2.47-.81,3.27,3.87,3.66,5.62,1.86,8.2,1.01,17.26,1.22,25.63h16.6c.69,3.51-.75,6.91-.89,10.15-.15,3.77,2.98,7.98-2.65,11.22-4.48,2.58-5.93-.6-8.68-.48-2.26.1-11.94,1.77-13.61,1.59-1.93-.2-4.23-3.34-7.38-.52,13.36,19.61,36.49,5.01,40.74-13.94,5.3-23.66-3.21-50.52-25.72-61.65-1.94-.48-1.08.23-1.45,1.25-1.05,2.92-1.3,6.38-2.39,9.36-3.3,9-8.09,18.34-15.09,24.95l10.24,5.37,5.38,6.83ZM218.15,215.19c3.32,3.96,12.74-7.13,6.35-10.71l-6.35,10.71ZM268.93,225.94l-10.76-19.52c-11.84,2.53,8.58,21.51,10.76,19.52ZM262.1,225.96l-10.73-9.78c-.8,10.67.32,23.96,10.73,9.78ZM270.88,229.86c-5.19-2.2-9.02.81-10.74,5.84,4.43.71,8.42-2.27,10.74-5.84ZM242.56,247.44c-5.2-2.17-14.28,3.08-18.87,6.02-8.75,5.6-19.82,18.01-22.65,28.12-1.18,4.2-2.78,8.96,3.42,8.81,2.19-10.56,8.12-21.16,16.1-28.35,6.73-6.06,14.82-9.38,22-14.61ZM265.35,290.06c4.52,3,10.03,3.4,14.31-.15-5.62-4.04-15.38-12.87-14.62-20.42.39-3.86,5.07-7.45,1.44-13.26-.92-1.47-14.51-5.97-16.53-5.84-1.88.12-14.05,6.52-16.47,7.98-11.93,7.15-23.01,16.46-23.18,31.54-.03,2.53,4.48,1.69,6.18,1.27,2.8-.69,4.9-3.84,7.62-5.06,8.57-3.87,16.08,1.49,17.97,10.16,3.25-8.44,10.4-14.36,19.41-9.66,2.54,1.32,2.85,2.78,3.86,3.45ZM197.63,280.63c4.83-9.07,4.28-17.48,2.93-27.34-6.4,4.68-3.48,13.46-3.38,20.06.02,1.27-2.96,5.83.44,7.27ZM192.76,258.17h-13.67v2.93h13.67v-2.93ZM301.16,261.1h-28.32c-.49,2.31.33,1.57,1.26,2.19,4.68,3.13,4.41.02,7.1-.26,2.05-.22,10.49,1.15,14.31.81,1.56-.14,5.11-.88,5.66-2.73ZM192.76,265.01h-13.67c-2.27,5.68,12.18,4.45,13.24,2.99l.43-2.99ZM270.01,272.71c1.03,1.76,7.65-.05,5.31-3.83-2.19-3.55-7.85-.52-5.31,3.83ZM284.45,268.05c-.92-1.58-7.43-.33-5.29,3.8,2.13,4.12,7.71.33,5.29-3.8ZM288.57,272.71c1.03,1.76,7.65-.05,5.31-3.83-2.19-3.55-7.85-.52-5.31,3.83ZM299.82,267.03c-3.81.64-2.6,7.26.72,6.7,3.81-.64,2.6-7.26-.72-6.7ZM192.76,271.84h-13.67c-2.27,5.68,12.18,4.45,13.24,2.99l.43-2.99ZM179.71,278.81c-.58.16-2.04,1.17-1.12,1.82,1.32,3.09,13.72,2.59,14.16.47.72-3.41-11.04-2.83-13.05-2.29ZM261.12,322.62c4.14-.24,8.03-2.65,12.2-2.72,12.24-.2,24.98,10.52,37.83,5.4,13.43-5.36,15.34-26.91,5.53-36.27-1.44-1.37-6.58-4.29-8.4-4.3-.74,0-7.26,4.58-9.79,5.45-5.78,2-9.36,3.38-14.93,5.58-6.83,2.7-14.63,4.1-20.99-.46-.97.74-1.1.79-1.07,2,.24,8.43,1,17.04-.38,25.32ZM195.7,293.33c1.87,12.65-4.85,8.58-10.27,1.96-4.53-5.52-2.62-9.88-11.62-8.71-16.3,2.12-19.61,39.27,3,39.57,12.3.17,23.64-9.46,36.71-7.2,3.74.65,5.86,3.52,9.51,3.66l-1.06-5.36.6-21c-1.4-2.29-5.67.62-7.91.9-6.19.75-13.49-.95-18.96-3.82ZM226.05,294.22c1.46,2.03,6.74.21,5.76-3.3-1.05-3.79-8.41-.41-5.76,3.3ZM253.4,289.51c-2.03,1.46-.21,6.74,3.3,5.76,3.79-1.05.41-8.41-3.3-5.76ZM235.72,323.59c3.44-9.81,4.21-20.79-.48-30.28-.67.02-1.08,2.77-1.01,3.47.73,8.01-.06,15.93.03,24.39,0,.84.16,2.71,1.45,2.42ZM249.39,323.6c1.63-2.69-.84-4.29-.94-6.38-.28-5.75.53-13.64.74-19.79.06-1.59.12-2.65-1.73-3.12-2.35,8.94-3.08,16.99-.02,25.89.37,1.09.55,3.54,1.95,3.39ZM227.53,297.32c-3.75,1.2-.87,8.31,3.37,5.34,2.4-1.68.85-6.69-3.37-5.34ZM258.19,303.09l-.94-5.41c-2.83-2.06-6.31,2.53-3.8,5.28l4.74.14ZM227.53,306.11c-2.72.88-2.21,6.64,1.69,5.63s3.32-7.26-1.69-5.63ZM258.19,306.02l-4.74.14c-2.51,2.75.97,7.34,3.8,5.28l.94-5.41ZM228.53,313.9c-3.2.54-3.09,6.28-.14,6.53,4.58.4,3.89-7.17.14-6.53ZM258.19,319.7l-.94-5.41c-2.83-2.06-6.31,2.53-3.8,5.28l4.74.14Z"/>
  <path class="cls-1" d="M324.59,329.46c.72,17.59-5,28.78-23.89,29.35-3.69.11-6.6-1.04-9.75-1.07-15.99-.12-39.1-3.6-49.34,10.78-1.31-6.32-8.83-8.46-14.42-9.52-26.71-5.06-66.94,13.49-68.61-29.05,3.19,1.09,5.61,3.56,8.81,4.86,17.46,7.12,48.23-4.15,69.86,2.4,1.87.57,4.64,2.98,5.64,2.83.87-.13,3.6-2.6,5.55-3.26,7.67-2.61,25.94-1.83,34.7-1.51,14.36.52,29.52,5.99,41.45-5.82ZM243.52,348.99h-1.43c-3.25-3.93-7.79-6.14-12.82-6.72-17.57-2.04-37.69,1.24-55.59-.07-2.88-.21-5.63-.83-8.26-1.99,0,5.09,3.94,9.22,8.71,10.32,3.65.84,12.81,1.24,17.12,1.44,16.31.76,38.34-4.35,50.82,7.74,4.71-5.35,11.84-7.04,18.68-7.66,15.56-1.41,32.87,1.24,48.47-1.34,6.08-1.01,8.93-4.91,10.49-10.5-3,.61-5.01,1.71-8.26,1.98-14.32,1.19-55.26-3.43-65.34,3.02-1.48.94-2.44,1.95-2.58,3.78Z"/>
  <path class="cls-1" d="M203.74,135.86c-2.52-2.43-.29-7.26,4.1-6.61,7.21,1.07,1.39,11.91-4.1,6.61Z"/>
  <path class="cls-1" d="M186.65,116.81c4.23,4.37-2.25,9.98-5.62,6.13-3.86-4.4,2.5-9.36,5.62-6.13Z"/>
  <path class="cls-1" d="M197.5,123.26c-1.57,2.51-10.04.9-7.2-4.74,2.58-5.12,10.46-.46,7.2,4.74Z"/>
  <path class="cls-1" d="M178.94,122.58c3.26,5.2-4.62,9.86-7.2,4.74-2.84-5.64,5.63-7.25,7.2-4.74Z"/>
  <path class="cls-1" d="M169.04,129.4c5.28-1.46,7.22,6.08,2.52,7.5-6.83,2.06-6.49-6.4-2.52-7.5Z"/>
  <path class="cls-1" d="M198.75,121.59c1.54-2.46,10.07-.92,7.21,4.75-2.64,5.24-9.85-.55-7.21-4.75Z"/>
  <path class="cls-1" d="M206.15,138.19c5.39-1.5,7.12,6.25,2.51,7.54-5.39,1.5-7.12-6.25-2.51-7.54Z"/>
  <path class="cls-1" d="M209.03,230.96c7.14-2.44,8.11,8.93.84,7.72-3.92-.65-4.11-6.61-.84-7.72Z"/>
  <path class="cls-1" d="M263.07,176.15c.21,8.22-8.72,6.82-14.64,6.83.15-9.08,8.05-6.65,14.64-6.83Z"/>
  <path class="cls-1" d="M236.7,182.97c-5.87.34-14.21.78-14.64-6.83l11.72.48,2.92,6.35Z"/>
  <path class="cls-1" d="M239.77,269.05c4.2-2.63,9.99,4.58,4.75,7.21-5.67,2.85-7.21-5.67-4.75-7.21Z"/>
</svg>