<?xml version="1.0" encoding="UTF-8"?>
<svg id="Layer_1" xmlns="http://www.w3.org/2000/svg" version="1.1" viewBox="0 0 500 500">
  <!-- Generator: Adobe Illustrator 29.1.0, SVG Export Plug-In . SVG Version: 2.1.0 Build 142)  -->
  <rect width="500" height="497.24" display="none" fill="#493c25"/>
  <g>
    <path d="M237.37,484.64H12.63V200.62c54.13-1.47,110.62,7.8,155.49,39.31,43.25,30.37,66.85,77.18,69.29,129.98l-.03,114.73Z" fill="#efb848"/>
    <path d="M487.37,200.62v284.02h-224.75c1.26-37.08-1.67-75.25-.03-112.21,1.6-36.27,12.56-72.34,35.42-100.77,45.05-56.01,120.02-73.33,189.36-71.04Z" fill="#efb848"/>
    <path d="M353.54,85.5h-207.07c1.3-3.23,5.73-14.32,8.43-15.53l188.94-.42c3.11.6,8.5,12.53,9.7,15.95Z" fill="#efb848"/>
    <path d="M360.27,106.51h-220.54l3.88-14.34,211.19.05c3.37.61,4.66,11.12,5.47,14.29Z" fill="#efb848"/>
    <polygon points="361.95 114.07 362.79 126.67 137.21 126.67 138.05 114.07 361.95 114.07" fill="#efb848"/>
    <path d="M340.91,63.65h-181.82c.55-2.08,2.81-4.62,4.23-6.28,2.2-2.56,8.65-10.05,11.39-10.48l148.99-.1c3.86.23,8.3,5.48,10.9,8.44,2.28,2.59,4.36,5.57,6.3,8.41Z" fill="#efb848"/>
    <polygon points="362.79 135.08 361.82 145.45 360.69 146.84 138.05 146.84 137.21 135.08 362.79 135.08" fill="#efb848"/>
    <path d="M319.87,41.8h-139.73c38.66-32.87,100.92-32.72,139.73,0Z" fill="#efb848"/>
    <polygon points="359.43 156.08 356.35 166.2 144.33 166.22 143 165.67 140.57 156.08 359.43 156.08" fill="#efb848"/>
    <path d="M352.69,176.25c-2.13,3.08-2.7,8.98-7.11,9.28l-193.93-.18-4.34-9.1h205.39Z" fill="#efb848"/>
    <path d="M340.91,196.42l-5.41,6.78-2.54.82h-165.08c-4.55.3-6-4.96-8.79-7.6h181.82Z" fill="#efb848"/>
    <polygon points="321.55 215.74 314.78 222.01 187.24 222.51 177.61 215.74 321.55 215.74" fill="#efb848"/>
    <path d="M288.72,235.07l-14.98,4.79c-14.42,2.85-28.74,3.12-43.28.84l-19.19-5.64h77.44Z" fill="#efb848"/>
  </g>
</svg>