<?xml version="1.0" encoding="UTF-8"?>
<svg id="Layer_1" xmlns="http://www.w3.org/2000/svg" version="1.1" viewBox="0 0 750 750">
  <!-- Generator: Adobe Illustrator 29.1.0, SVG Export Plug-In . SVG Version: 2.1.0 Build 142)  -->
  <g>
    <polygon points="72.64 73.7 325.76 73.7 325.76 171.05 243.01 171.05 243.01 674.87 131.05 601.85 131.05 166.19 9.36 166.19 72.64 73.7" fill="#efb848"/>
    <polygon points="357.4 73.7 518.04 3.12 454.76 168.62 357.4 168.62 357.4 73.7" fill="#efb848"/>
    <polygon points="357.4 205.13 449.89 205.13 449.89 684.6 357.4 747.88 357.4 205.13" fill="#efb848"/>
    <path d="M486.4,168.62l31.64-94.92h138.73s85.19,24.34,85.19,77.88v187.41s-31.64,76.67-76.67,76.67h-88.84v186.19l-90.05,63.28v-343.18h97.36s64.5,12.17,64.5-64.5,0-52.33,0-52.33c0,0-7.3-39.55-39.55-39.55s-122.3,3.04-122.3,3.04Z" fill="#efb848"/>
  </g>
  <polygon points="83.4 206.63 375.5 37.98 667.6 206.63 667.6 543.92 375.5 712.56 83.4 543.92 83.4 206.63" display="none" fill="none" stroke="#427bbf" stroke-miterlimit="10" stroke-width="20"/>
</svg>